<svg version="1.1" id="Layer_1" xmlns="http://www.w3.org/2000/svg" xmlns:xlink="http://www.w3.org/1999/xlink" x="0px" y="0px"
	 width="100%" viewBox="0 0 4346 813" enable-background="new 0 0 4346 813" xml:space="preserve">
<path fill="#000000" opacity="1.000000" stroke="none" 
	d="
M3263.000000,814.000000 
	C2175.333252,814.000000 1088.166626,814.000000 1.000000,814.000000 
	C1.000000,543.000000 1.000000,272.000000 1.000000,1.000000 
	C1449.666626,1.000000 2898.333252,1.000000 4347.000000,1.000000 
	C4347.000000,272.000000 4347.000000,543.000000 4347.000000,814.000000 
	C3985.833252,814.000000 3624.666748,814.000000 3263.000000,814.000000 
M414.455780,547.035950 
	C425.130035,528.702026 435.867920,510.404816 446.460693,492.023926 
	C457.132599,473.505737 467.583679,454.860199 478.269928,436.350342 
	C492.575470,411.571381 507.043732,386.886322 521.384338,362.127472 
	C529.521179,348.079285 537.502014,333.940765 545.626709,319.885498 
	C555.039001,303.602997 564.560791,287.383820 573.981323,271.106140 
	C581.950684,257.336060 589.817200,243.506546 597.777527,229.731247 
	C605.819824,215.814392 613.934448,201.939438 621.993042,188.031998 
	C629.083740,175.795135 635.906982,163.396240 643.267517,151.324478 
	C654.239563,133.329651 662.408020,114.954323 659.172729,92.866493 
	C655.969238,70.995842 645.768860,53.694172 628.027588,41.119778 
	C610.778137,28.894060 591.160156,25.168022 570.477905,29.117928 
	C551.798889,32.685249 536.015137,42.162346 525.275879,57.795986 
	C515.291992,72.329994 507.077820,88.088531 498.234009,103.394333 
	C488.908508,119.533760 479.827087,135.814163 470.516296,151.962219 
	C459.919220,170.341202 449.122864,188.605347 438.530396,206.986954 
	C427.859009,225.505493 417.408447,244.151367 406.722198,262.661255 
	C392.416626,287.440216 377.948059,312.125061 363.607025,336.883575 
	C355.469940,350.931580 347.487030,365.068817 339.363434,379.124695 
	C329.952637,395.407745 320.437103,411.630219 311.016846,427.907806 
	C303.047516,441.678253 295.164154,455.498383 287.215637,469.280914 
	C277.822113,485.569000 268.388702,501.834106 258.992737,518.120789 
	C251.120499,531.766418 243.288483,545.435242 235.418442,559.082153 
	C225.946960,575.505981 216.466293,591.924561 206.966309,608.331909 
	C199.956696,620.438232 192.911774,632.524048 185.878876,644.616821 
	C179.332718,655.872742 172.060181,666.777893 166.422012,678.471313 
	C159.906647,691.984009 156.658020,706.256592 158.812119,721.767517 
	C161.956161,744.406677 172.682922,761.945129 191.291962,774.703186 
	C208.552155,786.536499 227.970001,789.816528 248.136017,785.773071 
	C266.452850,782.100342 282.396240,772.951172 292.786285,757.104370 
	C303.965576,740.053955 313.693695,722.046997 323.930725,704.385376 
	C331.906555,690.624939 339.650940,676.730591 347.573547,662.939026 
	C355.737518,648.727356 363.977570,634.559326 372.212708,620.388672 
	C379.240753,608.295105 386.369141,596.259521 393.342621,584.134705 
	C400.310211,572.020264 407.140717,559.827026 414.455780,547.035950 
M850.500000,660.000000 
	C860.265320,660.000000 870.030640,660.000000 880.370117,660.000000 
	C880.370117,644.293213 880.370117,629.159119 880.370117,613.229492 
	C881.723999,614.375610 882.393677,614.832825 882.930542,615.412964 
	C897.831421,631.514893 915.236450,643.928711 935.615967,652.314270 
	C952.654419,659.325073 970.325256,663.877563 988.583313,664.782227 
	C1007.163208,665.702881 1025.832642,665.594177 1044.322876,662.081055 
	C1060.346924,659.036621 1075.946167,654.699463 1090.630005,647.665222 
	C1112.368896,637.251221 1131.499512,623.318909 1147.590942,605.108154 
	C1157.003296,594.455994 1165.041748,583.014832 1172.031616,570.726135 
	C1188.260620,542.194092 1195.017212,511.090088 1195.775757,478.702484 
	C1196.108765,464.483276 1194.287109,450.179657 1192.930664,435.963318 
	C1191.155273,417.355804 1185.464966,399.715363 1177.376587,382.997986 
	C1165.179688,357.788788 1148.599243,335.921173 1126.230835,318.646820 
	C1112.095825,307.730957 1096.841797,298.727936 1080.308716,292.226166 
	C1060.013916,284.245209 1038.667847,280.309753 1016.932068,279.085388 
	C999.153137,278.083893 981.301331,278.934662 964.005188,283.177429 
	C935.330566,290.211273 909.358582,302.742554 888.322998,324.141907 
	C887.247498,325.235931 886.055298,326.215240 883.975098,328.103333 
	C883.975098,263.595032 883.975098,200.413559 883.975098,137.283112 
	C854.035645,137.283112 824.630432,137.283112 795.284851,137.283112 
	C795.284851,311.636414 795.284851,485.706482 795.284851,660.000000 
	C813.545837,660.000000 831.522949,660.000000 850.500000,660.000000 
M2669.548584,617.968201 
	C2671.137939,616.554993 2672.727295,615.141846 2675.181152,612.959900 
	C2675.181152,629.500732 2675.181152,644.604919 2675.181152,659.750305 
	C2703.233643,659.750305 2730.970459,659.750305 2758.764160,659.750305 
	C2758.764160,485.441071 2758.764160,311.381622 2758.764160,137.237122 
	C2729.458252,137.237122 2700.388428,137.237122 2670.758789,137.237122 
	C2670.758789,200.618286 2670.758789,263.764221 2670.758789,326.910126 
	C2670.321777,327.169678 2669.884766,327.429199 2669.447754,327.688721 
	C2667.382812,325.376404 2665.410889,322.972107 2663.236328,320.767853 
	C2654.608887,312.022552 2644.593994,305.159943 2633.815918,299.360809 
	C2607.256104,285.070862 2578.820801,278.359467 2548.749268,279.115387 
	C2537.317139,279.402740 2525.900391,280.828369 2514.507812,282.030731 
	C2497.549561,283.820496 2481.525146,289.185059 2466.073975,296.069427 
	C2439.453857,307.930115 2416.988281,325.199097 2399.017822,348.351410 
	C2387.655273,362.990540 2378.610596,378.847778 2372.074951,396.101532 
	C2365.222900,414.190430 2361.326660,433.128845 2360.245850,452.312073 
	C2359.067627,473.216553 2358.996094,494.333710 2363.152100,515.008362 
	C2367.177490,535.034912 2373.252686,554.409119 2383.593750,572.346069 
	C2390.930420,585.071777 2399.218018,597.029846 2409.268799,607.623596 
	C2426.089600,625.352844 2445.572021,639.338806 2468.174561,649.148560 
	C2489.034912,658.202209 2510.776123,663.460266 2533.240479,664.754944 
	C2551.291504,665.795288 2569.478760,665.761108 2587.471924,662.103027 
	C2603.008545,658.944397 2617.933594,654.139343 2631.952881,646.903076 
	C2645.946533,639.679871 2658.471436,630.294189 2669.548584,617.968201 
M2874.000000,533.500000 
	C2874.000000,621.244812 2874.000000,708.989624 2874.000000,796.740479 
	C2903.927734,796.740479 2933.327393,796.740479 2963.278809,796.740479 
	C2963.278809,736.680359 2963.278809,676.878174 2963.278809,616.312866 
	C2964.617432,617.346497 2965.300781,617.760559 2965.845703,618.311584 
	C2980.976807,633.617798 2998.487061,645.245789 3018.532471,653.210327 
	C3036.621582,660.397461 3055.294922,664.621704 3074.727051,664.909973 
	C3085.800781,665.074219 3096.956543,664.980896 3107.950439,663.820923 
	C3119.330078,662.620178 3130.746094,660.711182 3141.816406,657.839355 
	C3168.110840,651.017883 3191.506348,638.140320 3211.921875,620.393433 
	C3233.104004,601.979980 3249.039795,579.502869 3259.877930,553.508789 
	C3269.526123,530.368652 3273.822021,506.081909 3274.879395,481.210938 
	C3275.285645,471.659668 3274.840576,461.998962 3273.872314,452.480804 
	C3272.642334,440.388336 3271.369385,428.175781 3268.513672,416.403381 
	C3264.579346,400.182770 3258.231689,384.744873 3249.741455,370.208923 
	C3235.789795,346.321869 3217.806396,326.309204 3194.706543,310.960022 
	C3178.944336,300.486328 3162.113525,292.270996 3143.914551,287.060974 
	C3127.148438,282.261078 3109.981201,279.547211 3092.553711,279.097382 
	C3083.818604,278.871918 3075.034668,279.382996 3066.314453,280.081787 
	C3058.055908,280.743652 3049.665039,281.319336 3041.656738,283.266296 
	C3011.498291,290.598053 2984.707031,304.218628 2963.250244,327.218292 
	C2962.219727,328.322968 2961.031738,329.280731 2958.894531,331.248047 
	C2958.894531,314.212006 2958.894531,298.683838 2958.894531,283.308594 
	C2930.307129,283.308594 2902.239990,283.308594 2874.000000,283.308594 
	C2874.000000,366.578064 2874.000000,449.539032 2874.000000,533.500000 
M1494.986938,596.479553 
	C1505.031616,606.189880 1514.350098,616.826721 1525.286743,625.399109 
	C1542.827759,639.148071 1562.626343,649.066895 1584.092651,655.685242 
	C1600.129761,660.629761 1616.515747,663.984070 1633.102417,664.725586 
	C1652.663452,665.600159 1672.304688,665.726196 1691.855347,662.186157 
	C1708.888428,659.101929 1725.553223,655.015686 1741.246704,647.866333 
	C1765.545776,636.796753 1787.144287,621.870972 1805.007324,601.671204 
	C1814.526489,590.907166 1822.616211,579.284241 1829.626709,566.827881 
	C1843.815063,541.617188 1851.178467,514.327393 1852.820435,485.650269 
	C1853.779297,468.902954 1853.006836,452.119049 1850.182129,435.394684 
	C1847.372070,418.757080 1842.855957,402.665558 1835.674194,387.593445 
	C1824.524048,364.192871 1809.503052,343.513153 1789.343994,326.705322 
	C1769.793457,310.404907 1748.074951,298.201294 1724.065796,290.008698 
	C1705.102295,283.537842 1685.435913,280.049316 1665.530029,279.242279 
	C1651.247314,278.663239 1636.862671,280.145325 1622.543823,281.035095 
	C1605.997559,282.063293 1590.154419,286.353424 1574.609741,291.968140 
	C1552.205688,300.060455 1531.909424,311.880737 1514.132446,327.583008 
	C1500.612305,339.525146 1489.194946,353.380127 1479.452515,368.790771 
	C1460.672363,398.497955 1452.082031,431.047485 1451.217407,465.704834 
	C1450.883545,479.085358 1452.636108,492.566376 1454.088379,505.930939 
	C1455.962524,523.175903 1461.474121,539.469727 1468.664673,555.193359 
	C1475.413086,569.950134 1484.232178,583.416565 1494.986938,596.479553 
M1954.462891,341.024078 
	C1953.147705,342.680420 1951.744385,344.274841 1950.531860,346.003174 
	C1942.742676,357.105713 1934.038086,367.699524 1927.424316,379.466583 
	C1911.442017,407.902863 1905.572021,439.170868 1905.180298,471.443390 
	C1905.045898,482.512665 1906.775024,493.632904 1908.046631,504.684601 
	C1910.255981,523.888611 1916.138672,542.104797 1924.843628,559.251099 
	C1935.889893,581.009094 1950.100830,600.420471 1968.810791,616.486206 
	C1980.677490,626.675659 1993.192627,635.769104 2007.026611,642.954834 
	C2032.140625,655.999756 2059.120850,663.028931 2087.179443,664.768982 
	C2108.075684,666.064819 2129.206543,665.998230 2149.880615,661.850098 
	C2170.855469,657.641541 2191.234131,651.410278 2209.974609,640.574890 
	C2228.701904,629.747070 2245.789551,617.129822 2260.118896,600.638794 
	C2273.311768,585.456116 2283.721680,568.748901 2291.894531,550.502136 
	C2300.773438,530.680420 2305.562988,509.714325 2306.756104,488.231262 
	C2307.858154,468.384125 2307.252930,448.494263 2303.193848,428.734222 
	C2298.396484,405.380188 2289.519043,383.967377 2276.592773,364.080078 
	C2267.137451,349.533356 2255.533691,336.971039 2242.327637,325.737732 
	C2226.062500,311.902008 2207.903809,301.395660 2188.112549,293.580444 
	C2160.804443,282.796906 2132.335693,278.317383 2103.136963,279.159821 
	C2088.949463,279.569153 2074.549072,280.424957 2060.719971,283.335388 
	C2045.427368,286.553864 2030.181641,291.185455 2015.805542,297.295776 
	C1992.550171,307.180054 1972.336060,322.004700 1954.462891,341.024078 
M3927.000000,319.500000 
	C3927.000000,307.403351 3927.000000,295.306702 3927.000000,283.288330 
	C3897.020996,283.288330 3867.617676,283.288330 3838.000000,283.288330 
	C3838.000000,285.386627 3838.000000,287.198303 3838.000000,289.009979 
	C3838.000000,346.170227 3838.110596,403.330841 3837.909180,460.490387 
	C3837.867432,472.325592 3836.879395,484.173401 3835.949707,495.985687 
	C3834.706055,511.781067 3830.070801,526.628418 3822.160400,540.369446 
	C3813.556641,555.315125 3802.213135,567.408081 3786.485840,575.231506 
	C3774.482422,581.202332 3762.040527,584.713074 3748.675293,586.183777 
	C3733.633301,587.838867 3718.965088,586.961304 3704.502930,582.948364 
	C3682.311523,576.790771 3666.296143,563.246521 3657.026611,542.011108 
	C3648.915283,523.429321 3647.303955,503.565521 3647.168213,483.784149 
	C3646.721191,418.627899 3647.000000,353.466644 3647.000000,288.307312 
	C3647.000000,286.561401 3647.000000,284.815491 3647.000000,283.357849 
	C3617.214355,283.357849 3588.143311,283.357849 3559.000000,283.357849 
	C3559.000000,357.704620 3558.871338,431.694031 3559.133545,505.682007 
	C3559.174561,517.264099 3560.590576,528.891663 3562.077637,540.406921 
	C3564.635742,560.215881 3570.929199,578.837708 3580.983154,596.194885 
	C3594.075195,618.796753 3612.476318,636.020935 3635.561035,647.597717 
	C3656.471924,658.084167 3679.242432,663.611084 3702.575439,664.757629 
	C3721.743652,665.699463 3740.944824,665.528564 3760.066895,661.239563 
	C3789.622070,654.610352 3815.294922,641.553528 3836.552002,619.943848 
	C3838.149658,618.319519 3839.562256,616.513123 3842.065918,613.636963 
	C3842.065918,630.095337 3842.065918,644.954590 3842.065918,659.701965 
	C3870.665039,659.701965 3898.735352,659.701965 3927.000000,659.701965 
	C3927.000000,546.436035 3927.000000,433.468018 3927.000000,319.500000 
M82.534904,357.970856 
	C77.827873,366.017578 73.077644,374.039368 68.423035,382.116302 
	C59.436108,397.710846 51.013451,413.658661 41.414318,428.865021 
	C30.261950,446.531860 25.512976,465.172089 28.979767,485.858032 
	C32.118412,504.585968 41.326027,519.871338 56.090508,531.421204 
	C73.604965,545.122314 93.742203,549.711182 115.712097,546.002747 
	C136.350327,542.519043 152.747482,531.995178 163.878891,514.520447 
	C175.444473,496.364227 185.840042,477.458649 196.619843,458.807098 
	C205.946167,442.670380 215.016815,426.385895 224.340134,410.247406 
	C235.916962,390.208252 247.710342,370.294128 259.275909,350.248535 
	C271.321838,329.370239 283.120667,308.349274 295.186310,287.482483 
	C309.672943,262.428833 324.387054,237.506790 338.888550,212.461670 
	C349.111115,194.806549 358.715393,176.778519 369.383057,159.400284 
	C379.768951,142.481110 383.603394,124.329498 379.758911,105.264091 
	C375.040527,81.864906 361.873016,63.881050 340.285706,52.803020 
	C323.367004,44.120800 305.307861,42.195137 287.244263,47.319256 
	C277.410309,50.108864 267.228302,54.465492 259.399719,60.820904 
	C249.696320,68.698311 242.434769,79.392509 236.470779,90.806847 
	C229.033997,105.039940 220.732727,118.825294 212.676926,132.729935 
	C203.246582,149.007156 193.603256,165.161133 184.191711,181.449066 
	C174.867081,197.586578 165.759583,213.849396 156.476486,230.011093 
	C146.952744,246.591751 137.358383,263.132019 127.745018,279.660980 
	C119.743721,293.418152 111.602600,307.094330 103.648804,320.878723 
	C96.664719,332.982513 89.854691,345.186798 82.534904,357.970856 
M4284.037598,376.575043 
	C4295.000000,354.909241 4305.962402,333.243439 4317.395020,310.648346 
	C4305.875488,305.744568 4294.559082,300.426575 4282.882324,296.077148 
	C4266.539062,289.989807 4249.590332,286.004791 4232.236328,284.004852 
	C4216.839355,282.230377 4201.451172,280.124634 4185.997070,279.185944 
	C4175.473145,278.546692 4164.833496,279.508087 4154.261230,280.051575 
	C4146.251465,280.463318 4138.065918,280.459900 4130.311523,282.207336 
	C4115.458008,285.554749 4100.509766,289.062988 4086.228271,294.237183 
	C4064.535889,302.096344 4046.072021,314.961823 4031.197021,333.091431 
	C4015.857422,351.787262 4009.681152,373.330627 4009.129395,396.852814 
	C4008.961914,403.996552 4010.212158,411.190125 4011.024170,418.336884 
	C4012.866455,434.552917 4019.758545,448.543427 4030.317139,460.792603 
	C4044.652344,477.423309 4063.201172,487.602325 4083.809570,493.839874 
	C4097.781738,498.068848 4112.150391,501.179199 4126.511719,503.887421 
	C4146.717773,507.697693 4167.122070,510.448212 4187.364258,514.081238 
	C4200.972656,516.523560 4214.217773,520.067993 4226.599121,526.826111 
	C4243.014648,535.786011 4246.119141,554.721863 4236.705566,568.830933 
	C4230.330566,578.385681 4220.941406,583.828003 4210.414062,586.856750 
	C4192.121094,592.119690 4173.346191,593.998169 4154.311523,591.995178 
	C4142.151855,590.715515 4129.921387,589.839478 4117.867188,587.888672 
	C4097.321777,584.563721 4077.694092,577.915955 4058.806641,569.254639 
	C4049.708740,565.082458 4040.963867,560.140198 4031.803223,555.414673 
	C4020.645020,577.719543 4009.432617,600.132446 3998.160645,622.664795 
	C3999.008789,623.428833 3999.770020,624.357178 4000.737305,624.949280 
	C4016.260986,634.454102 4032.480957,642.673340 4049.917969,647.866211 
	C4065.757568,652.583374 4081.871094,656.541382 4098.063477,659.861084 
	C4110.297852,662.369324 4122.828125,664.537231 4135.260254,664.730896 
	C4155.908691,665.052673 4176.616211,664.173523 4197.237793,662.847534 
	C4214.990723,661.706055 4232.194824,657.440002 4248.926758,651.104675 
	C4272.372070,642.227478 4292.566895,629.046631 4308.296387,609.264893 
	C4321.788086,592.297729 4328.097656,572.782166 4328.850098,551.449585 
	C4329.119141,543.819519 4327.863281,536.106323 4326.971680,528.469788 
	C4323.831055,501.571625 4309.045410,482.391571 4286.372559,468.909180 
	C4267.430176,457.645081 4246.782227,450.475250 4225.256348,446.104767 
	C4212.565430,443.528015 4199.643555,442.110718 4186.866699,439.928162 
	C4174.284180,437.778656 4161.720703,435.483063 4149.208984,432.954620 
	C4136.107422,430.307007 4123.247070,426.646362 4111.659668,419.806061 
	C4105.605469,416.232208 4100.376465,411.386017 4098.017090,404.362579 
	C4092.398193,387.636749 4098.960449,374.518616 4112.270508,365.031525 
	C4127.866211,353.915161 4146.293457,352.302338 4164.516113,351.154877 
	C4181.759277,350.069122 4198.923828,351.859436 4215.993164,354.908478 
	C4238.535156,358.935150 4259.949219,365.749695 4279.582031,377.771759 
	C4280.580566,378.383331 4282.485352,377.515289 4284.037598,376.575043 
M1278.000000,460.500000 
	C1278.000000,526.926819 1278.000000,593.353577 1278.000000,659.710754 
	C1307.977905,659.710754 1337.382690,659.710754 1366.713867,659.710754 
	C1366.713867,485.354553 1366.713867,311.287750 1366.713867,137.289230 
	C1337.022095,137.289230 1307.617432,137.289230 1278.000000,137.289230 
	C1278.000000,244.885544 1278.000000,352.192780 1278.000000,460.500000 
M3358.000000,612.500000 
	C3358.000000,628.263245 3358.000000,644.026550 3358.000000,659.708496 
	C3387.982422,659.708496 3417.387207,659.708496 3446.711670,659.708496 
	C3446.711670,485.350128 3446.711670,311.283447 3446.711670,137.291489 
	C3417.017578,137.291489 3387.612793,137.291489 3358.000000,137.291489 
	C3358.000000,295.555267 3358.000000,453.527618 3358.000000,612.500000 
z"/>
<path fill="#FFFFFF" opacity="1.000000" stroke="none" 
	d="
M414.243530,547.352112 
	C407.140717,559.827026 400.310211,572.020264 393.342621,584.134705 
	C386.369141,596.259521 379.240753,608.295105 372.212708,620.388672 
	C363.977570,634.559326 355.737518,648.727356 347.573547,662.939026 
	C339.650940,676.730591 331.906555,690.624939 323.930725,704.385376 
	C313.693695,722.046997 303.965576,740.053955 292.786285,757.104370 
	C282.396240,772.951172 266.452850,782.100342 248.136017,785.773071 
	C227.970001,789.816528 208.552155,786.536499 191.291962,774.703186 
	C172.682922,761.945129 161.956161,744.406677 158.812119,721.767517 
	C156.658020,706.256592 159.906647,691.984009 166.422012,678.471313 
	C172.060181,666.777893 179.332718,655.872742 185.878876,644.616821 
	C192.911774,632.524048 199.956696,620.438232 206.966309,608.331909 
	C216.466293,591.924561 225.946960,575.505981 235.418442,559.082153 
	C243.288483,545.435242 251.120499,531.766418 258.992737,518.120789 
	C268.388702,501.834106 277.822113,485.569000 287.215637,469.280914 
	C295.164154,455.498383 303.047516,441.678253 311.016846,427.907806 
	C320.437103,411.630219 329.952637,395.407745 339.363434,379.124695 
	C347.487030,365.068817 355.469940,350.931580 363.607025,336.883575 
	C377.948059,312.125061 392.416626,287.440216 406.722198,262.661255 
	C417.408447,244.151367 427.859009,225.505493 438.530396,206.986954 
	C449.122864,188.605347 459.919220,170.341202 470.516296,151.962219 
	C479.827087,135.814163 488.908508,119.533760 498.234009,103.394333 
	C507.077820,88.088531 515.291992,72.329994 525.275879,57.795986 
	C536.015137,42.162346 551.798889,32.685249 570.477905,29.117928 
	C591.160156,25.168022 610.778137,28.894060 628.027588,41.119778 
	C645.768860,53.694172 655.969238,70.995842 659.172729,92.866493 
	C662.408020,114.954323 654.239563,133.329651 643.267517,151.324478 
	C635.906982,163.396240 629.083740,175.795135 621.993042,188.031998 
	C613.934448,201.939438 605.819824,215.814392 597.777527,229.731247 
	C589.817200,243.506546 581.950684,257.336060 573.981323,271.106140 
	C564.560791,287.383820 555.039001,303.602997 545.626709,319.885498 
	C537.502014,333.940765 529.521179,348.079285 521.384338,362.127472 
	C507.043732,386.886322 492.575470,411.571381 478.269928,436.350342 
	C467.583679,454.860199 457.132599,473.505737 446.460693,492.023926 
	C435.867920,510.404816 425.130035,528.702026 414.243530,547.352112 
z"/>
<path fill="#FFFFFF" opacity="1.000000" stroke="none" 
	d="
M850.000000,660.000000 
	C831.522949,660.000000 813.545837,660.000000 795.284851,660.000000 
	C795.284851,485.706482 795.284851,311.636414 795.284851,137.283112 
	C824.630432,137.283112 854.035645,137.283112 883.975098,137.283112 
	C883.975098,200.413559 883.975098,263.595032 883.975098,328.103333 
	C886.055298,326.215240 887.247498,325.235931 888.322998,324.141907 
	C909.358582,302.742554 935.330566,290.211273 964.005188,283.177429 
	C981.301331,278.934662 999.153137,278.083893 1016.932068,279.085388 
	C1038.667847,280.309753 1060.013916,284.245209 1080.308716,292.226166 
	C1096.841797,298.727936 1112.095825,307.730957 1126.230835,318.646820 
	C1148.599243,335.921173 1165.179688,357.788788 1177.376587,382.997986 
	C1185.464966,399.715363 1191.155273,417.355804 1192.930664,435.963318 
	C1194.287109,450.179657 1196.108765,464.483276 1195.775757,478.702484 
	C1195.017212,511.090088 1188.260620,542.194092 1172.031616,570.726135 
	C1165.041748,583.014832 1157.003296,594.455994 1147.590942,605.108154 
	C1131.499512,623.318909 1112.368896,637.251221 1090.630005,647.665222 
	C1075.946167,654.699463 1060.346924,659.036621 1044.322876,662.081055 
	C1025.832642,665.594177 1007.163208,665.702881 988.583313,664.782227 
	C970.325256,663.877563 952.654419,659.325073 935.615967,652.314270 
	C915.236450,643.928711 897.831421,631.514893 882.930542,615.412964 
	C882.393677,614.832825 881.723999,614.375610 880.370117,613.229492 
	C880.370117,629.159119 880.370117,644.293213 880.370117,660.000000 
	C870.030640,660.000000 860.265320,660.000000 850.000000,660.000000 
M967.057251,357.425201 
	C962.006165,358.958618 956.874512,360.269897 951.919312,362.067627 
	C937.867615,367.165497 925.359131,375.061676 915.059692,385.725281 
	C905.752075,395.361816 898.360168,406.554565 892.903870,419.016296 
	C886.704041,433.176239 883.888306,448.006500 883.087219,463.241089 
	C882.404602,476.224030 883.205994,489.150330 885.928345,501.974060 
	C889.991760,521.114258 897.925110,538.373718 910.719849,553.102295 
	C930.123291,575.438599 955.463623,586.350098 984.453369,588.842224 
	C997.033020,589.923645 1009.697388,589.057800 1022.160645,586.058105 
	C1045.619873,580.411804 1065.264038,568.514709 1080.428711,549.905396 
	C1095.295654,531.661438 1103.024048,510.075317 1104.721313,486.849915 
	C1105.724121,473.127350 1105.775146,459.212402 1103.148071,445.364136 
	C1098.105957,418.785950 1086.418823,396.256134 1065.408691,378.928284 
	C1046.672729,363.476196 1025.082520,355.296295 1000.805847,355.127716 
	C989.819824,355.051422 978.824158,356.353333 967.057251,357.425201 
z"/>
<path fill="#FFFFFF" opacity="1.000000" stroke="none" 
	d="
M2669.286621,618.215698 
	C2658.471436,630.294189 2645.946533,639.679871 2631.952881,646.903076 
	C2617.933594,654.139343 2603.008545,658.944397 2587.471924,662.103027 
	C2569.478760,665.761108 2551.291504,665.795288 2533.240479,664.754944 
	C2510.776123,663.460266 2489.034912,658.202209 2468.174561,649.148560 
	C2445.572021,639.338806 2426.089600,625.352844 2409.268799,607.623596 
	C2399.218018,597.029846 2390.930420,585.071777 2383.593750,572.346069 
	C2373.252686,554.409119 2367.177490,535.034912 2363.152100,515.008362 
	C2358.996094,494.333710 2359.067627,473.216553 2360.245850,452.312073 
	C2361.326660,433.128845 2365.222900,414.190430 2372.074951,396.101532 
	C2378.610596,378.847778 2387.655273,362.990540 2399.017822,348.351410 
	C2416.988281,325.199097 2439.453857,307.930115 2466.073975,296.069427 
	C2481.525146,289.185059 2497.549561,283.820496 2514.507812,282.030731 
	C2525.900391,280.828369 2537.317139,279.402740 2548.749268,279.115387 
	C2578.820801,278.359467 2607.256104,285.070862 2633.815918,299.360809 
	C2644.593994,305.159943 2654.608887,312.022552 2663.236328,320.767853 
	C2665.410889,322.972107 2667.382812,325.376404 2669.447754,327.688721 
	C2669.884766,327.429199 2670.321777,327.169678 2670.758789,326.910126 
	C2670.758789,263.764221 2670.758789,200.618286 2670.758789,137.237122 
	C2700.388428,137.237122 2729.458252,137.237122 2758.764160,137.237122 
	C2758.764160,311.381622 2758.764160,485.441071 2758.764160,659.750305 
	C2730.970459,659.750305 2703.233643,659.750305 2675.181152,659.750305 
	C2675.181152,644.604919 2675.181152,629.500732 2675.181152,612.959900 
	C2672.727295,615.141846 2671.137939,616.554993 2669.286621,618.215698 
M2598.962402,360.451294 
	C2590.791260,358.634369 2582.663574,355.580353 2574.438477,355.289429 
	C2561.989990,354.849091 2549.358887,355.493652 2537.012207,357.187164 
	C2516.461182,360.005981 2498.777100,369.579712 2483.821045,383.803406 
	C2472.191162,394.864136 2463.248047,408.007294 2457.537598,423.051239 
	C2453.105225,434.727417 2450.118164,446.834625 2450.012695,459.458313 
	C2449.945801,467.459167 2449.727295,475.473267 2450.086914,483.458496 
	C2450.372070,489.792267 2450.865967,496.217773 2452.245361,502.383698 
	C2458.149658,528.774719 2471.434326,550.661377 2492.893311,567.422729 
	C2510.572266,581.231323 2531.022949,587.567566 2552.993164,588.793213 
	C2562.918701,589.346924 2573.042725,588.219910 2582.946289,586.886719 
	C2603.366455,584.137756 2620.800293,574.691223 2636.179932,561.283875 
	C2645.009766,553.586548 2651.685791,544.073608 2657.396240,533.992310 
	C2666.012207,518.781555 2670.926025,502.292847 2671.915039,484.819366 
	C2672.403809,476.182800 2672.723145,467.418579 2671.809082,458.851837 
	C2670.769287,449.106537 2669.188477,439.221924 2666.208008,429.921783 
	C2660.062744,410.747009 2649.370117,394.139282 2634.171631,380.744812 
	C2624.042480,371.817993 2612.596680,364.990845 2598.962402,360.451294 
z"/>
<path fill="#FFFFFF" opacity="1.000000" stroke="none" 
	d="
M2874.000000,533.000000 
	C2874.000000,449.539032 2874.000000,366.578064 2874.000000,283.308594 
	C2902.239990,283.308594 2930.307129,283.308594 2958.894531,283.308594 
	C2958.894531,298.683838 2958.894531,314.212006 2958.894531,331.248047 
	C2961.031738,329.280731 2962.219727,328.322968 2963.250244,327.218292 
	C2984.707031,304.218628 3011.498291,290.598053 3041.656738,283.266296 
	C3049.665039,281.319336 3058.055908,280.743652 3066.314453,280.081787 
	C3075.034668,279.382996 3083.818604,278.871918 3092.553711,279.097382 
	C3109.981201,279.547211 3127.148438,282.261078 3143.914551,287.060974 
	C3162.113525,292.270996 3178.944336,300.486328 3194.706543,310.960022 
	C3217.806396,326.309204 3235.789795,346.321869 3249.741455,370.208923 
	C3258.231689,384.744873 3264.579346,400.182770 3268.513672,416.403381 
	C3271.369385,428.175781 3272.642334,440.388336 3273.872314,452.480804 
	C3274.840576,461.998962 3275.285645,471.659668 3274.879395,481.210938 
	C3273.822021,506.081909 3269.526123,530.368652 3259.877930,553.508789 
	C3249.039795,579.502869 3233.104004,601.979980 3211.921875,620.393433 
	C3191.506348,638.140320 3168.110840,651.017883 3141.816406,657.839355 
	C3130.746094,660.711182 3119.330078,662.620178 3107.950439,663.820923 
	C3096.956543,664.980896 3085.800781,665.074219 3074.727051,664.909973 
	C3055.294922,664.621704 3036.621582,660.397461 3018.532471,653.210327 
	C2998.487061,645.245789 2980.976807,633.617798 2965.845703,618.311584 
	C2965.300781,617.760559 2964.617432,617.346497 2963.278809,616.312866 
	C2963.278809,676.878174 2963.278809,736.680359 2963.278809,796.740479 
	C2933.327393,796.740479 2903.927734,796.740479 2874.000000,796.740479 
	C2874.000000,708.989624 2874.000000,621.244812 2874.000000,533.000000 
M3181.997803,442.686615 
	C3177.991943,431.717529 3174.911621,420.292236 3169.778320,409.878937 
	C3160.470459,390.997925 3145.723633,376.894165 3127.110352,367.038269 
	C3103.544678,354.559937 3078.115723,352.217285 3052.449707,356.278687 
	C3025.454834,360.550385 3002.785645,373.571289 2985.818359,395.636871 
	C2969.950684,416.272095 2962.703613,439.924683 2962.208496,465.545868 
	C2961.982178,477.262482 2963.430908,489.104950 2965.123047,500.744537 
	C2968.099609,521.222046 2977.407715,539.027405 2991.016113,554.357666 
	C3010.165283,575.929688 3035.095215,586.367615 3063.323242,588.837585 
	C3078.686523,590.181824 3094.036865,588.678223 3108.947998,584.007568 
	C3135.181396,575.790283 3155.068604,559.613464 3168.942627,536.083069 
	C3180.517578,516.452332 3184.261719,494.619202 3184.794678,472.286926 
	C3185.022705,462.740845 3183.000000,453.141022 3181.997803,442.686615 
z"/>
<path fill="#FFFFFF" opacity="1.000000" stroke="none" 
	d="
M1494.726196,596.229187 
	C1484.232178,583.416565 1475.413086,569.950134 1468.664673,555.193359 
	C1461.474121,539.469727 1455.962524,523.175903 1454.088379,505.930939 
	C1452.636108,492.566376 1450.883545,479.085358 1451.217407,465.704834 
	C1452.082031,431.047485 1460.672363,398.497955 1479.452515,368.790771 
	C1489.194946,353.380127 1500.612305,339.525146 1514.132446,327.583008 
	C1531.909424,311.880737 1552.205688,300.060455 1574.609741,291.968140 
	C1590.154419,286.353424 1605.997559,282.063293 1622.543823,281.035095 
	C1636.862671,280.145325 1651.247314,278.663239 1665.530029,279.242279 
	C1685.435913,280.049316 1705.102295,283.537842 1724.065796,290.008698 
	C1748.074951,298.201294 1769.793457,310.404907 1789.343994,326.705322 
	C1809.503052,343.513153 1824.524048,364.192871 1835.674194,387.593445 
	C1842.855957,402.665558 1847.372070,418.757080 1850.182129,435.394684 
	C1853.006836,452.119049 1853.779297,468.902954 1852.820435,485.650269 
	C1851.178467,514.327393 1843.815063,541.617188 1829.626709,566.827881 
	C1822.616211,579.284241 1814.526489,590.907166 1805.007324,601.671204 
	C1787.144287,621.870972 1765.545776,636.796753 1741.246704,647.866333 
	C1725.553223,655.015686 1708.888428,659.101929 1691.855347,662.186157 
	C1672.304688,665.726196 1652.663452,665.600159 1633.102417,664.725586 
	C1616.515747,663.984070 1600.129761,660.629761 1584.092651,655.685242 
	C1562.626343,649.066895 1542.827759,639.148071 1525.286743,625.399109 
	C1514.350098,616.826721 1505.031616,606.189880 1494.726196,596.229187 
M1724.936401,564.583069 
	C1735.752563,554.681580 1744.684937,543.284058 1750.919800,530.020569 
	C1756.831299,517.444641 1760.800903,504.286957 1762.125488,490.276215 
	C1763.822632,472.322449 1763.963623,454.459564 1759.392944,436.977081 
	C1751.992188,408.669861 1737.114746,385.452972 1711.515869,370.004791 
	C1697.036011,361.266663 1681.261719,356.295746 1664.527466,355.180603 
	C1654.682739,354.524536 1644.702271,355.420074 1634.811768,356.061951 
	C1622.948608,356.831848 1611.738770,360.495422 1601.072021,365.508392 
	C1579.212646,375.781616 1563.649536,392.638062 1553.090210,414.002045 
	C1540.773438,438.922272 1538.784424,465.632721 1542.182129,492.714874 
	C1544.273804,509.386810 1549.660034,525.182678 1558.863647,539.576111 
	C1568.635986,554.858582 1580.817627,567.470947 1596.941895,575.963074 
	C1609.597290,582.628296 1623.028687,586.551331 1637.350098,588.161072 
	C1651.225464,589.720520 1664.790649,588.958618 1678.383545,586.255981 
	C1695.428833,582.866882 1710.557495,575.408325 1724.936401,564.583069 
z"/>
<path fill="#FFFFFF" opacity="1.000000" stroke="none" 
	d="
M1954.722778,340.776123 
	C1972.336060,322.004700 1992.550171,307.180054 2015.805542,297.295776 
	C2030.181641,291.185455 2045.427368,286.553864 2060.719971,283.335388 
	C2074.549072,280.424957 2088.949463,279.569153 2103.136963,279.159821 
	C2132.335693,278.317383 2160.804443,282.796906 2188.112549,293.580444 
	C2207.903809,301.395660 2226.062500,311.902008 2242.327637,325.737732 
	C2255.533691,336.971039 2267.137451,349.533356 2276.592773,364.080078 
	C2289.519043,383.967377 2298.396484,405.380188 2303.193848,428.734222 
	C2307.252930,448.494263 2307.858154,468.384125 2306.756104,488.231262 
	C2305.562988,509.714325 2300.773438,530.680420 2291.894531,550.502136 
	C2283.721680,568.748901 2273.311768,585.456116 2260.118896,600.638794 
	C2245.789551,617.129822 2228.701904,629.747070 2209.974609,640.574890 
	C2191.234131,651.410278 2170.855469,657.641541 2149.880615,661.850098 
	C2129.206543,665.998230 2108.075684,666.064819 2087.179443,664.768982 
	C2059.120850,663.028931 2032.140625,655.999756 2007.026611,642.954834 
	C1993.192627,635.769104 1980.677490,626.675659 1968.810791,616.486206 
	C1950.100830,600.420471 1935.889893,581.009094 1924.843628,559.251099 
	C1916.138672,542.104797 1910.255981,523.888611 1908.046631,504.684601 
	C1906.775024,493.632904 1905.045898,482.512665 1905.180298,471.443390 
	C1905.572021,439.170868 1911.442017,407.902863 1927.424316,379.466583 
	C1934.038086,367.699524 1942.742676,357.105713 1950.531860,346.003174 
	C1951.744385,344.274841 1953.147705,342.680420 1954.722778,340.776123 
M2205.617432,414.093292 
	C2204.987549,413.163147 2204.255127,412.286011 2203.743652,411.294769 
	C2197.673828,399.532745 2190.064209,389.072968 2179.940186,380.314423 
	C2162.441162,365.175415 2141.954834,357.048370 2119.303467,355.287323 
	C2107.109131,354.339203 2094.562500,355.455566 2082.392822,357.179932 
	C2057.320312,360.732513 2036.852051,373.291199 2020.937134,392.734924 
	C2004.117310,413.284149 1996.002197,437.481171 1995.231323,463.787140 
	C1994.873901,475.983887 1996.423218,488.333313 1998.121704,500.471680 
	C2000.963379,520.779114 2010.185303,538.444458 2023.438354,553.816223 
	C2042.708862,576.167114 2068.048584,586.681274 2096.932129,588.846985 
	C2109.009521,589.752563 2121.090576,588.785706 2133.153809,586.188171 
	C2159.591797,580.495422 2180.959961,567.302124 2196.265869,545.081909 
	C2209.357666,526.076050 2216.660645,504.890656 2216.983643,481.589539 
	C2217.087646,474.091675 2217.514648,466.545898 2216.860596,459.104095 
	C2216.155029,451.077911 2214.813477,443.035919 2212.897705,435.209290 
	C2211.195068,428.253937 2208.326660,421.584076 2205.617432,414.093292 
z"/>
<path fill="#FFFFFF" opacity="1.000000" stroke="none" 
	d="
M3927.000000,320.000000 
	C3927.000000,433.468018 3927.000000,546.436035 3927.000000,659.701965 
	C3898.735352,659.701965 3870.665039,659.701965 3842.065918,659.701965 
	C3842.065918,644.954590 3842.065918,630.095337 3842.065918,613.636963 
	C3839.562256,616.513123 3838.149658,618.319519 3836.552002,619.943848 
	C3815.294922,641.553528 3789.622070,654.610352 3760.066895,661.239563 
	C3740.944824,665.528564 3721.743652,665.699463 3702.575439,664.757629 
	C3679.242432,663.611084 3656.471924,658.084167 3635.561035,647.597717 
	C3612.476318,636.020935 3594.075195,618.796753 3580.983154,596.194885 
	C3570.929199,578.837708 3564.635742,560.215881 3562.077637,540.406921 
	C3560.590576,528.891663 3559.174561,517.264099 3559.133545,505.682007 
	C3558.871338,431.694031 3559.000000,357.704620 3559.000000,283.357849 
	C3588.143311,283.357849 3617.214355,283.357849 3647.000000,283.357849 
	C3647.000000,284.815491 3647.000000,286.561401 3647.000000,288.307312 
	C3647.000000,353.466644 3646.721191,418.627899 3647.168213,483.784149 
	C3647.303955,503.565521 3648.915283,523.429321 3657.026611,542.011108 
	C3666.296143,563.246521 3682.311523,576.790771 3704.502930,582.948364 
	C3718.965088,586.961304 3733.633301,587.838867 3748.675293,586.183777 
	C3762.040527,584.713074 3774.482422,581.202332 3786.485840,575.231506 
	C3802.213135,567.408081 3813.556641,555.315125 3822.160400,540.369446 
	C3830.070801,526.628418 3834.706055,511.781067 3835.949707,495.985687 
	C3836.879395,484.173401 3837.867432,472.325592 3837.909180,460.490387 
	C3838.110596,403.330841 3838.000000,346.170227 3838.000000,289.009979 
	C3838.000000,287.198303 3838.000000,285.386627 3838.000000,283.288330 
	C3867.617676,283.288330 3897.020996,283.288330 3927.000000,283.288330 
	C3927.000000,295.306702 3927.000000,307.403351 3927.000000,320.000000 
z"/>
<path fill="#FFFFFF" opacity="1.000000" stroke="none" 
	d="
M82.751343,357.658752 
	C89.854691,345.186798 96.664719,332.982513 103.648804,320.878723 
	C111.602600,307.094330 119.743721,293.418152 127.745018,279.660980 
	C137.358383,263.132019 146.952744,246.591751 156.476486,230.011093 
	C165.759583,213.849396 174.867081,197.586578 184.191711,181.449066 
	C193.603256,165.161133 203.246582,149.007156 212.676926,132.729935 
	C220.732727,118.825294 229.033997,105.039940 236.470779,90.806847 
	C242.434769,79.392509 249.696320,68.698311 259.399719,60.820904 
	C267.228302,54.465492 277.410309,50.108864 287.244263,47.319256 
	C305.307861,42.195137 323.367004,44.120800 340.285706,52.803020 
	C361.873016,63.881050 375.040527,81.864906 379.758911,105.264091 
	C383.603394,124.329498 379.768951,142.481110 369.383057,159.400284 
	C358.715393,176.778519 349.111115,194.806549 338.888550,212.461670 
	C324.387054,237.506790 309.672943,262.428833 295.186310,287.482483 
	C283.120667,308.349274 271.321838,329.370239 259.275909,350.248535 
	C247.710342,370.294128 235.916962,390.208252 224.340134,410.247406 
	C215.016815,426.385895 205.946167,442.670380 196.619843,458.807098 
	C185.840042,477.458649 175.444473,496.364227 163.878891,514.520447 
	C152.747482,531.995178 136.350327,542.519043 115.712097,546.002747 
	C93.742203,549.711182 73.604965,545.122314 56.090508,531.421204 
	C41.326027,519.871338 32.118412,504.585968 28.979767,485.858032 
	C25.512976,465.172089 30.261950,446.531860 41.414318,428.865021 
	C51.013451,413.658661 59.436108,397.710846 68.423035,382.116302 
	C73.077644,374.039368 77.827873,366.017578 82.751343,357.658752 
z"/>
<path fill="#FFFFFF" opacity="1.000000" stroke="none" 
	d="
M4284.002930,376.955597 
	C4282.485352,377.515289 4280.580566,378.383331 4279.582031,377.771759 
	C4259.949219,365.749695 4238.535156,358.935150 4215.993164,354.908478 
	C4198.923828,351.859436 4181.759277,350.069122 4164.516113,351.154877 
	C4146.293457,352.302338 4127.866211,353.915161 4112.270508,365.031525 
	C4098.960449,374.518616 4092.398193,387.636749 4098.017090,404.362579 
	C4100.376465,411.386017 4105.605469,416.232208 4111.659668,419.806061 
	C4123.247070,426.646362 4136.107422,430.307007 4149.208984,432.954620 
	C4161.720703,435.483063 4174.284180,437.778656 4186.866699,439.928162 
	C4199.643555,442.110718 4212.565430,443.528015 4225.256348,446.104767 
	C4246.782227,450.475250 4267.430176,457.645081 4286.372559,468.909180 
	C4309.045410,482.391571 4323.831055,501.571625 4326.971680,528.469788 
	C4327.863281,536.106323 4329.119141,543.819519 4328.850098,551.449585 
	C4328.097656,572.782166 4321.788086,592.297729 4308.296387,609.264893 
	C4292.566895,629.046631 4272.372070,642.227478 4248.926758,651.104675 
	C4232.194824,657.440002 4214.990723,661.706055 4197.237793,662.847534 
	C4176.616211,664.173523 4155.908691,665.052673 4135.260254,664.730896 
	C4122.828125,664.537231 4110.297852,662.369324 4098.063477,659.861084 
	C4081.871094,656.541382 4065.757568,652.583374 4049.917969,647.866211 
	C4032.480957,642.673340 4016.260986,634.454102 4000.737305,624.949280 
	C3999.770020,624.357178 3999.008789,623.428833 3998.160645,622.664795 
	C4009.432617,600.132446 4020.645020,577.719543 4031.803223,555.414673 
	C4040.963867,560.140198 4049.708740,565.082458 4058.806641,569.254639 
	C4077.694092,577.915955 4097.321777,584.563721 4117.867188,587.888672 
	C4129.921387,589.839478 4142.151855,590.715515 4154.311523,591.995178 
	C4173.346191,593.998169 4192.121094,592.119690 4210.414062,586.856750 
	C4220.941406,583.828003 4230.330566,578.385681 4236.705566,568.830933 
	C4246.119141,554.721863 4243.014648,535.786011 4226.599121,526.826111 
	C4214.217773,520.067993 4200.972656,516.523560 4187.364258,514.081238 
	C4167.122070,510.448212 4146.717773,507.697693 4126.511719,503.887421 
	C4112.150391,501.179199 4097.781738,498.068848 4083.809570,493.839874 
	C4063.201172,487.602325 4044.652344,477.423309 4030.317139,460.792603 
	C4019.758545,448.543427 4012.866455,434.552917 4011.024170,418.336884 
	C4010.212158,411.190125 4008.961914,403.996552 4009.129395,396.852814 
	C4009.681152,373.330627 4015.857422,351.787262 4031.197021,333.091431 
	C4046.072021,314.961823 4064.535889,302.096344 4086.228271,294.237183 
	C4100.509766,289.062988 4115.458008,285.554749 4130.311523,282.207336 
	C4138.065918,280.459900 4146.251465,280.463318 4154.261230,280.051575 
	C4164.833496,279.508087 4175.473145,278.546692 4185.997070,279.185944 
	C4201.451172,280.124634 4216.839355,282.230377 4232.236328,284.004852 
	C4249.590332,286.004791 4266.539062,289.989807 4282.882324,296.077148 
	C4294.559082,300.426575 4305.875488,305.744568 4317.395020,310.648346 
	C4305.962402,333.243439 4295.000000,354.909241 4284.002930,376.955597 
z"/>
<path fill="#FFFFFF" opacity="1.000000" stroke="none" 
	d="
M1278.000000,460.000000 
	C1278.000000,352.192780 1278.000000,244.885544 1278.000000,137.289230 
	C1307.617432,137.289230 1337.022095,137.289230 1366.713867,137.289230 
	C1366.713867,311.287750 1366.713867,485.354553 1366.713867,659.710754 
	C1337.382690,659.710754 1307.977905,659.710754 1278.000000,659.710754 
	C1278.000000,593.353577 1278.000000,526.926819 1278.000000,460.000000 
z"/>
<path fill="#FFFFFF" opacity="1.000000" stroke="none" 
	d="
M3358.000000,612.000000 
	C3358.000000,453.527618 3358.000000,295.555267 3358.000000,137.291489 
	C3387.612793,137.291489 3417.017578,137.291489 3446.711670,137.291489 
	C3446.711670,311.283447 3446.711670,485.350128 3446.711670,659.708496 
	C3417.387207,659.708496 3387.982422,659.708496 3358.000000,659.708496 
	C3358.000000,644.026550 3358.000000,628.263245 3358.000000,612.000000 
z"/>
<path fill="#000000" opacity="1.000000" stroke="none" 
	d="
M967.445068,357.227600 
	C978.824158,356.353333 989.819824,355.051422 1000.805847,355.127716 
	C1025.082520,355.296295 1046.672729,363.476196 1065.408691,378.928284 
	C1086.418823,396.256134 1098.105957,418.785950 1103.148071,445.364136 
	C1105.775146,459.212402 1105.724121,473.127350 1104.721313,486.849915 
	C1103.024048,510.075317 1095.295654,531.661438 1080.428711,549.905396 
	C1065.264038,568.514709 1045.619873,580.411804 1022.160645,586.058105 
	C1009.697388,589.057800 997.033020,589.923645 984.453369,588.842224 
	C955.463623,586.350098 930.123291,575.438599 910.719849,553.102295 
	C897.925110,538.373718 889.991760,521.114258 885.928345,501.974060 
	C883.205994,489.150330 882.404602,476.224030 883.087219,463.241089 
	C883.888306,448.006500 886.704041,433.176239 892.903870,419.016296 
	C898.360168,406.554565 905.752075,395.361816 915.059692,385.725281 
	C925.359131,375.061676 937.867615,367.165497 951.919312,362.067627 
	C956.874512,360.269897 962.006165,358.958618 967.445068,357.227600 
z"/>
<path fill="#000000" opacity="1.000000" stroke="none" 
	d="
M2599.286133,360.703918 
	C2612.596680,364.990845 2624.042480,371.817993 2634.171631,380.744812 
	C2649.370117,394.139282 2660.062744,410.747009 2666.208008,429.921783 
	C2669.188477,439.221924 2670.769287,449.106537 2671.809082,458.851837 
	C2672.723145,467.418579 2672.403809,476.182800 2671.915039,484.819366 
	C2670.926025,502.292847 2666.012207,518.781555 2657.396240,533.992310 
	C2651.685791,544.073608 2645.009766,553.586548 2636.179932,561.283875 
	C2620.800293,574.691223 2603.366455,584.137756 2582.946289,586.886719 
	C2573.042725,588.219910 2562.918701,589.346924 2552.993164,588.793213 
	C2531.022949,587.567566 2510.572266,581.231323 2492.893311,567.422729 
	C2471.434326,550.661377 2458.149658,528.774719 2452.245361,502.383698 
	C2450.865967,496.217773 2450.372070,489.792267 2450.086914,483.458496 
	C2449.727295,475.473267 2449.945801,467.459167 2450.012695,459.458313 
	C2450.118164,446.834625 2453.105225,434.727417 2457.537598,423.051239 
	C2463.248047,408.007294 2472.191162,394.864136 2483.821045,383.803406 
	C2498.777100,369.579712 2516.461182,360.005981 2537.012207,357.187164 
	C2549.358887,355.493652 2561.989990,354.849091 2574.438477,355.289429 
	C2582.663574,355.580353 2590.791260,358.634369 2599.286133,360.703918 
z"/>
<path fill="#000000" opacity="1.000000" stroke="none" 
	d="
M3181.999023,443.126099 
	C3183.000000,453.141022 3185.022705,462.740845 3184.794678,472.286926 
	C3184.261719,494.619202 3180.517578,516.452332 3168.942627,536.083069 
	C3155.068604,559.613464 3135.181396,575.790283 3108.947998,584.007568 
	C3094.036865,588.678223 3078.686523,590.181824 3063.323242,588.837585 
	C3035.095215,586.367615 3010.165283,575.929688 2991.016113,554.357666 
	C2977.407715,539.027405 2968.099609,521.222046 2965.123047,500.744537 
	C2963.430908,489.104950 2961.982178,477.262482 2962.208496,465.545868 
	C2962.703613,439.924683 2969.950684,416.272095 2985.818359,395.636871 
	C3002.785645,373.571289 3025.454834,360.550385 3052.449707,356.278687 
	C3078.115723,352.217285 3103.544678,354.559937 3127.110352,367.038269 
	C3145.723633,376.894165 3160.470459,390.997925 3169.778320,409.878937 
	C3174.911621,420.292236 3177.991943,431.717529 3181.999023,443.126099 
z"/>
<path fill="#000000" opacity="1.000000" stroke="none" 
	d="
M1724.629272,564.777710 
	C1710.557495,575.408325 1695.428833,582.866882 1678.383545,586.255981 
	C1664.790649,588.958618 1651.225464,589.720520 1637.350098,588.161072 
	C1623.028687,586.551331 1609.597290,582.628296 1596.941895,575.963074 
	C1580.817627,567.470947 1568.635986,554.858582 1558.863647,539.576111 
	C1549.660034,525.182678 1544.273804,509.386810 1542.182129,492.714874 
	C1538.784424,465.632721 1540.773438,438.922272 1553.090210,414.002045 
	C1563.649536,392.638062 1579.212646,375.781616 1601.072021,365.508392 
	C1611.738770,360.495422 1622.948608,356.831848 1634.811768,356.061951 
	C1644.702271,355.420074 1654.682739,354.524536 1664.527466,355.180603 
	C1681.261719,356.295746 1697.036011,361.266663 1711.515869,370.004791 
	C1737.114746,385.452972 1751.992188,408.669861 1759.392944,436.977081 
	C1763.963623,454.459564 1763.822632,472.322449 1762.125488,490.276215 
	C1760.800903,504.286957 1756.831299,517.444641 1750.919800,530.020569 
	C1744.684937,543.284058 1735.752563,554.681580 1724.629272,564.777710 
z"/>
<path fill="#000000" opacity="1.000000" stroke="none" 
	d="
M2205.794922,414.440765 
	C2208.326660,421.584076 2211.195068,428.253937 2212.897705,435.209290 
	C2214.813477,443.035919 2216.155029,451.077911 2216.860596,459.104095 
	C2217.514648,466.545898 2217.087646,474.091675 2216.983643,481.589539 
	C2216.660645,504.890656 2209.357666,526.076050 2196.265869,545.081909 
	C2180.959961,567.302124 2159.591797,580.495422 2133.153809,586.188171 
	C2121.090576,588.785706 2109.009521,589.752563 2096.932129,588.846985 
	C2068.048584,586.681274 2042.708862,576.167114 2023.438354,553.816223 
	C2010.185303,538.444458 2000.963379,520.779114 1998.121704,500.471680 
	C1996.423218,488.333313 1994.873901,475.983887 1995.231323,463.787140 
	C1996.002197,437.481171 2004.117310,413.284149 2020.937134,392.734924 
	C2036.852051,373.291199 2057.320312,360.732513 2082.392822,357.179932 
	C2094.562500,355.455566 2107.109131,354.339203 2119.303467,355.287323 
	C2141.954834,357.048370 2162.441162,365.175415 2179.940186,380.314423 
	C2190.064209,389.072968 2197.673828,399.532745 2203.743652,411.294769 
	C2204.255127,412.286011 2204.987549,413.163147 2205.794922,414.440765 
z"/>
</svg>