<?xml version="1.0" standalone="no"?>
<!DOCTYPE svg PUBLIC "-//W3C//DTD SVG 20010904//EN"
 "http://www.w3.org/TR/2001/REC-SVG-20010904/DTD/svg10.dtd">
<svg version="1.0" xmlns="http://www.w3.org/2000/svg"
 width="4346.000000pt" height="813.000000pt" viewBox="0 0 4346.000000 813.000000"
 preserveAspectRatio="xMidYMid meet">

<g transform="translate(0.000000,813.000000) scale(0.100000,-0.100000)"
fill="#000000" stroke="none">
<path d="M5728 7850 c-205 -37 -373 -140 -483 -295 -23 -33 -843 -1446 -1821
-3140 -1330 -2305 -1785 -3101 -1808 -3165 -29 -81 -31 -93 -31 -235 0 -143 2
-154 31 -238 45 -123 87 -189 184 -288 71 -72 101 -93 180 -132 52 -26 124
-55 160 -64 89 -23 272 -23 360 1 152 41 309 142 397 257 23 30 846 1447 1829
3149 1328 2300 1795 3117 1818 3180 29 81 31 92 31 235 0 143 -2 154 -31 238
-45 124 -87 190 -185 288 -71 72 -101 94 -180 133 -51 25 -121 53 -154 61 -73
19 -233 27 -297 15z"/>
<path d="M2945 7680 c-183 -27 -366 -133 -472 -271 -70 -92 -2122 -3655 -2153
-3739 -152 -412 82 -860 510 -976 101 -28 284 -25 380 5 138 43 226 95 325
196 l90 91 1047 1815 c576 999 1056 1836 1066 1860 53 123 69 324 36 458 -33
136 -125 290 -229 383 -159 141 -390 210 -600 178z"/>
<path d="M7950 4155 l0 -2615 420 0 420 0 0 243 0 242 102 -100 c204 -199 438
-324 728 -389 350 -78 784 -51 1122 70 267 95 540 282 729 497 317 361 469
787 469 1313 0 96 -5 218 -11 272 -63 580 -370 1082 -841 1374 -234 145 -496
234 -791 269 -148 17 -495 6 -621 -20 -295 -61 -564 -196 -761 -383 l-85 -80
0 961 0 961 -440 0 -440 0 0 -2615z m2253 415 c419 -94 725 -412 818 -850 33
-152 33 -439 1 -588 -110 -510 -470 -834 -977 -882 -389 -36 -758 111 -980
392 -117 149 -195 327 -230 533 -24 134 -24 366 0 499 90 514 446 854 965 920
78 10 317 -4 403 -24z"/>
<path d="M12780 4155 l0 -2615 440 0 440 0 0 2615 0 2615 -440 0 -440 0 0
-2615z"/>
<path d="M26710 5810 c0 -550 -4 -960 -9 -960 -5 0 -15 10 -24 23 -22 33 -171
157 -252 210 -164 105 -358 184 -560 227 -127 28 -482 39 -633 20 -313 -38
-593 -137 -830 -293 -118 -77 -161 -113 -275 -225 -248 -243 -421 -568 -491
-922 -32 -162 -40 -261 -40 -475 0 -383 56 -638 205 -933 92 -183 179 -302
329 -452 290 -290 613 -450 1041 -517 170 -26 502 -23 663 6 337 61 618 207
839 436 l67 70 0 -243 0 -242 420 0 420 0 0 2615 0 2615 -435 0 -435 0 0 -960z
m-930 -1224 c470 -71 820 -410 915 -886 21 -107 30 -337 16 -446 -49 -397
-262 -721 -581 -883 -202 -103 -411 -143 -639 -121 -284 27 -497 123 -681 309
-154 155 -245 322 -298 545 -24 101 -26 130 -26 316 0 172 3 220 21 300 74
335 262 594 541 747 201 110 483 156 732 119z"/>
<path d="M33570 4155 l0 -2615 440 0 440 0 0 2615 0 2615 -440 0 -440 0 0
-2615z"/>
<path d="M16185 5324 c-666 -90 -1198 -460 -1485 -1033 -128 -256 -189 -535
-190 -861 0 -254 28 -444 95 -644 192 -574 657 -1024 1240 -1201 365 -110 825
-123 1208 -34 296 69 602 225 829 424 260 226 472 565 563 900 101 370 91 826
-25 1186 -41 128 -165 373 -247 489 -88 123 -302 337 -421 420 -278 194 -580
310 -925 355 -147 19 -501 19 -642 -1z m575 -748 c230 -49 417 -150 558 -301
81 -86 134 -166 192 -289 102 -214 139 -466 109 -733 -27 -246 -112 -453 -260
-637 -248 -309 -733 -446 -1168 -331 -410 109 -696 434 -777 886 -23 127 -23
372 0 499 54 308 203 561 426 724 123 91 297 162 450 185 41 6 86 13 100 15
52 9 298 -3 370 -18z"/>
<path d="M20720 5324 c-665 -92 -1207 -475 -1486 -1050 -150 -309 -212 -693
-174 -1075 54 -531 320 -1003 745 -1319 270 -200 543 -311 905 -366 142 -22
508 -25 650 -5 773 106 1352 565 1595 1264 133 380 136 885 8 1281 -212 658
-770 1127 -1493 1256 -163 30 -584 37 -750 14z m495 -735 c421 -52 744 -312
884 -711 43 -123 62 -232 68 -394 10 -246 -28 -449 -122 -640 -63 -129 -149
-249 -238 -329 -370 -336 -1030 -362 -1434 -56 -211 159 -348 384 -410 674
-26 118 -25 467 0 585 78 357 295 641 593 778 185 86 432 121 659 93z"/>
<path d="M30535 5324 c-344 -53 -622 -186 -852 -408 l-103 -99 0 242 0 241
-420 0 -420 0 0 -2565 0 -2565 440 0 440 0 0 912 0 912 58 -55 c178 -172 358
-282 592 -360 417 -139 960 -110 1380 75 522 230 896 686 1029 1256 51 218 67
586 36 822 -58 440 -247 818 -557 1113 -128 123 -256 212 -423 295 -209 104
-396 160 -635 190 -119 14 -456 11 -565 -6z m350 -735 c274 -34 533 -174 695
-375 120 -150 193 -309 237 -514 22 -107 25 -416 4 -530 -80 -445 -374 -776
-782 -885 -279 -73 -583 -45 -834 79 -318 158 -518 440 -580 821 -19 117 -19
363 0 482 69 425 344 755 730 876 69 21 135 35 245 51 56 8 200 5 285 -5z"/>
<path d="M41387 5325 c-686 -83 -1148 -414 -1274 -913 -24 -93 -24 -406 -1
-509 37 -159 96 -267 217 -395 221 -234 523 -350 1151 -443 464 -68 604 -101
753 -177 137 -71 184 -149 175 -291 -6 -88 -32 -142 -99 -208 -134 -131 -385
-189 -759 -176 -270 10 -468 47 -740 139 -142 48 -348 140 -442 198 -27 17
-50 30 -53 30 -3 0 -80 -149 -171 -332 l-166 -332 28 -24 c51 -41 345 -179
482 -226 162 -56 283 -87 462 -120 224 -41 348 -50 630 -50 277 0 404 12 615
55 538 112 932 429 1047 844 19 69 22 105 22 265 1 160 -3 197 -22 275 -61
243 -205 416 -453 545 -254 131 -481 196 -899 255 -374 53 -575 101 -726 175
-165 80 -221 164 -212 319 6 96 39 163 116 231 134 120 332 170 667 170 361 0
680 -70 956 -211 64 -32 119 -59 122 -59 4 0 82 149 173 331 128 257 163 334
152 341 -36 25 -224 110 -303 138 -196 69 -511 135 -764 160 -141 14 -552 11
-684 -5z"/>
<path d="M35583 4093 c3 -1323 1 -1277 64 -1518 129 -495 443 -835 914 -989
370 -121 836 -125 1183 -11 235 77 412 181 569 336 l97 97 0 -234 0 -234 420
0 420 0 0 1880 0 1880 -440 0 -439 0 -4 -1062 c-3 -1057 -3 -1064 -25 -1161
-76 -334 -234 -560 -483 -691 -172 -91 -324 -121 -567 -113 -237 7 -381 54
-530 172 -141 113 -221 260 -275 505 -20 93 -21 124 -24 1223 l-4 1127 -440 0
-440 0 4 -1207z"/>
</g>
</svg>
