<?xml version="1.0" encoding="UTF-8"?>
<svg version="1.1" xmlns="http://www.w3.org/2000/svg" width="4346" height="813">
<path d="M0 0 C16.50583076 13.17566727 26.59511633 31.67496854 29.13427734 52.62304688 C30.62613977 77.86994941 20.5664659 96.35381857 8.05615234 117.37597656 C4.89089158 122.72378755 1.79498404 128.1112029 -1.30322266 133.49804688 C-2.56223143 135.68300368 -3.82134647 137.86789926 -5.08056641 140.05273438 C-5.70560059 141.13780273 -6.33063477 142.22287109 -6.97460938 143.34082031 C-10.7260029 149.85175944 -14.4826326 156.35967881 -18.23828125 162.86816406 C-21.37754512 168.30890024 -24.51553762 173.75036164 -27.65087891 179.19335938 C-33.67319594 189.64510887 -39.71241603 200.08604235 -45.80322266 210.49804688 C-50.87847389 219.17566929 -55.88831032 227.88910255 -60.86572266 236.62304688 C-66.40573995 246.34420304 -71.99947074 256.03199345 -77.64916992 265.68994141 C-83.80339007 276.21389312 -89.88942262 286.77684825 -95.97460938 297.34082031 C-99.10252414 302.7696463 -102.23430713 308.19623969 -105.36572266 313.62304688 C-106.61574145 315.7897027 -107.86574144 317.95636937 -109.11572266 320.12304688 C-146.61572266 385.12304688 -184.11572266 450.12304688 -221.61572266 515.12304688 C-222.23455322 516.19570801 -222.85338379 517.26836914 -223.4909668 518.37353516 C-224.74007784 520.53861758 -225.98926395 522.7036567 -227.23852539 524.86865234 C-230.37774575 530.30920393 -233.51562828 535.75051903 -236.65087891 541.19335938 C-242.67319594 551.64510887 -248.71241603 562.08604235 -254.80322266 572.49804688 C-259.87847389 581.17566929 -264.88831032 589.88910255 -269.86572266 598.62304688 C-275.40573995 608.34420304 -280.99947074 618.03199345 -286.64916992 627.68994141 C-290.89189532 634.94516403 -295.10571763 642.21657183 -299.30322266 649.49804688 C-299.92519531 650.57699219 -300.54716797 651.6559375 -301.18798828 652.76757812 C-303.08101392 656.0524768 -304.97347863 659.3376979 -306.86572266 662.62304688 C-310.62532165 669.15053198 -314.38664479 675.67696414 -318.15869141 682.19726562 C-320.65971711 686.52249137 -323.13845545 690.8595409 -325.60400391 695.20507812 C-338.76312785 718.28871038 -352.93086047 734.92540811 -378.99072266 743.12304688 C-399.33052526 747.93415119 -419.85772133 744.64773418 -437.81494141 734.23242188 C-454.91703286 723.63211915 -466.47456498 706.50786671 -471.30712891 687.09570312 C-476.95658167 662.08798565 -468.15079817 640.12041457 -455.39501953 619.16699219 C-452.41804853 614.21487887 -449.55717296 609.19504655 -446.67822266 604.18554688 C-445.38279482 601.93676538 -444.08722016 599.68806845 -442.79150391 597.43945312 C-441.81624756 595.7458667 -441.81624756 595.7458667 -440.82128906 594.01806641 C-437.67240212 588.55134708 -434.51889002 583.087298 -431.36572266 577.62304688 C-430.11569916 575.45639377 -428.86569919 573.28972708 -427.61572266 571.12304688 C-420.11572266 558.12304687 -412.61572266 545.12304688 -405.11572266 532.12304688 C-404.49689209 531.05038574 -403.87806152 529.97772461 -403.24047852 528.87255859 C-401.99136748 526.70747617 -400.74218136 524.54243705 -399.49291992 522.37744141 C-396.35369956 516.93688982 -393.21581703 511.49557472 -390.08056641 506.05273438 C-384.05824937 495.60098488 -378.01902928 485.1600514 -371.92822266 474.74804688 C-366.85297142 466.07042446 -361.84313499 457.3569912 -356.86572266 448.62304688 C-351.32570536 438.90189071 -345.73197457 429.2141003 -340.08227539 419.55615234 C-333.92805524 409.03220063 -327.8420227 398.4692455 -321.75683594 387.90527344 C-318.62892117 382.47644745 -315.49713818 377.04985406 -312.36572266 371.62304688 C-311.11570387 369.45639105 -309.86570387 367.28972438 -308.61572266 365.12304688 C-271.11572266 300.12304687 -233.61572266 235.12304687 -196.11572266 170.12304688 C-195.49689209 169.05038574 -194.87806152 167.97772461 -194.24047852 166.87255859 C-192.99136748 164.70747617 -191.74218136 162.54243705 -190.49291992 160.37744141 C-187.35369956 154.93688982 -184.21581703 149.49557472 -181.08056641 144.05273438 C-175.05824937 133.60098488 -169.01902928 123.1600514 -162.92822266 112.74804688 C-157.85297142 104.07042446 -152.84313499 95.3569912 -147.86572266 86.62304688 C-142.33219591 76.91327978 -136.75033507 67.23365249 -131.09985352 57.59130859 C-128.00729366 52.31007964 -124.93919725 47.01602042 -121.90478516 41.70117188 C-121.2343513 40.52942663 -120.56386008 39.3577142 -119.89331055 38.18603516 C-118.62548621 35.96793324 -117.3613721 33.74770453 -116.10180664 31.52490234 C-103.67242098 9.80488216 -88.46856727 -6.39141254 -63.80322266 -13.31445312 C-41.35073312 -17.73858899 -18.49850056 -13.65238722 0 0 Z " fill="#FFFFFF" transform="translate(629.86572265625,41.376953125)"/>
<path d="M0 0 C29.37 0 58.74 0 89 0 C89.33 62.7 89.66 125.4 90 190 C93.3 186.7 96.6 183.4 100 180 C136.28825721 148.33024825 183.55945401 139.38700748 230.33984375 142.2734375 C278.78559973 146.21219959 324.15455035 168.32437463 356.37890625 204.828125 C381.23826187 234.45673031 396.40225736 270.45275742 400 309 C400.16435547 310.42505859 400.16435547 310.42505859 400.33203125 311.87890625 C402.21827291 330.76647275 401.58245335 350.21620324 399 369 C398.8870459 369.82709473 398.7740918 370.65418945 398.65771484 371.50634766 C393.38259425 407.85312907 377.22940947 442.29518647 352 469 C350.87037767 470.32941948 349.74520688 471.66263718 348.625 473 C325.37115419 499.49239512 291.74926163 515.8278136 257.9375 523.75 C257.10065674 523.94875732 256.26381348 524.14751465 255.40161133 524.35229492 C240.43229752 527.68055272 225.46584356 528.38015372 210.1875 528.3125 C209.30814789 528.31034485 208.42879578 528.3081897 207.52279663 528.30596924 C194.82288 528.25604625 182.39654326 528.03423245 170 525 C168.73349609 524.69400879 168.73349609 524.69400879 167.44140625 524.38183594 C134.69207436 516.21826881 109.82186423 500.82186423 86 477 C85.67 492.18 85.34 507.36 85 523 C56.95 523 28.9 523 0 523 C0 350.41 0 177.82 0 0 Z M126 243 C125.41347656 243.4434375 124.82695313 243.886875 124.22265625 244.34375 C103.3985174 260.41508539 92.32766796 288.82764553 88.71875 313.95849609 C84.41578731 347.5600244 90.04699172 383.30638225 110.8125 410.75 C128.60210243 433.28076375 153.45707943 447.56545655 181.92578125 451.49609375 C212.63980482 454.98115506 243.9196762 449.25171093 268.5625 429.8125 C270.04678699 428.54765079 271.52659198 427.27750546 273 426 C273.58523438 425.55785156 274.17046875 425.11570312 274.7734375 424.66015625 C295.52950954 408.63023207 305.50706321 380.68052393 309.51904297 355.77832031 C313.87397261 321.56670046 308.19253899 286.52849685 287.08984375 258.62109375 C270.10579671 237.31960671 246.98148983 222.84819824 219.890625 218.43359375 C186.25224314 214.82948141 152.14635054 220.27241721 126 243 Z " fill="#FFFFFF" transform="translate(794,136)"/>
<path d="M0 0 C29.04 0 58.08 0 88 0 C88 172.59 88 345.18 88 523 C60.28 523 32.56 523 4 523 C3.67 507.82 3.34 492.64 3 477 C-0.774375 480.898125 -0.774375 480.898125 -4.625 484.875 C-11.90386838 492.23074553 -19.26005636 498.48056862 -28 504 C-29.08152344 504.69222656 -30.16304687 505.38445312 -31.27734375 506.09765625 C-46.60018172 515.37718123 -63.56023793 521.20218729 -81 525 C-81.70302246 525.16371094 -82.40604492 525.32742188 -83.13037109 525.49609375 C-128.78907017 535.7722204 -184.30066685 526.56895296 -224 502 C-254.65657647 482.28702411 -278.63384065 456.09765219 -294 423 C-294.53367187 421.88367188 -295.06734375 420.76734375 -295.6171875 419.6171875 C-305.87690831 397.1308564 -311.00576019 371.22987138 -311.23828125 346.56640625 C-311.24802979 345.69886215 -311.25777832 344.83131805 -311.26782227 343.93748474 C-311.44310249 324.29218717 -311.17465081 305.29128113 -307 286 C-306.80744629 285.11006348 -306.61489258 284.22012695 -306.41650391 283.30322266 C-296.14295292 237.66874429 -268.37934532 197.13727455 -229.24609375 171.49609375 C-206.7449029 157.27301405 -181.27574751 148.01716282 -155 144 C-154.2663623 143.88430664 -153.53272461 143.76861328 -152.77685547 143.64941406 C-108.15127478 136.93415588 -58.33605943 144.41721051 -21.3125 171.625 C-14.1418515 177.34103123 -7.48078624 183.51921376 -1 190 C-0.67 127.3 -0.34 64.6 0 0 Z M-145 222 C-145.70495605 222.21962402 -146.40991211 222.43924805 -147.13623047 222.66552734 C-160.13646228 226.85465563 -171.53304089 233.18474188 -182 242 C-182.78890625 242.64324219 -183.5778125 243.28648437 -184.390625 243.94921875 C-207.50403411 263.61015322 -218.83393675 291.63256852 -221.75 321.3125 C-221.85848739 323.20706036 -221.94104702 325.10325199 -222 327 C-222.03996094 328.11890625 -222.07992187 329.2378125 -222.12109375 330.390625 C-222.70141911 362.47920396 -214.41813687 394.22750084 -191.94848633 417.94311523 C-190.63782493 419.30074219 -189.31916044 420.65062978 -188 422 C-187.37222656 422.67804688 -186.74445312 423.35609375 -186.09765625 424.0546875 C-168.86197062 442.30423699 -141.85794481 451.41808316 -117.28125 452.21484375 C-83.90518448 452.90895117 -54.87476793 443.89768706 -30.3125 420.75 C-7.04034931 396.45489763 2.32044161 364.06270796 2 331 C0.9610823 301.65057502 -8.07544856 274.03726897 -28 252 C-29.23169922 250.62714844 -29.23169922 250.62714844 -30.48828125 249.2265625 C-47.49057603 231.24191291 -72.44776401 219.15002363 -97.31713867 217.82299805 C-121.44263328 217.31729839 -121.44263328 217.31729839 -145 222 Z " fill="#FFFFFF" transform="translate(2670,136)"/>
<path d="M0 0 C1.65690561 1.47863396 3.300617 2.97028656 4.93847656 4.4699707 C5.88207031 5.32977539 6.82566406 6.18958008 7.79785156 7.07543945 C36.65472328 34.63959004 54.19090299 73.37237555 59.93847656 112.4699707 C60.05416992 113.2139209 60.16986328 113.95787109 60.2890625 114.72436523 C68.03508732 166.19980315 57.90698842 223.04021521 26.93847656 265.4699707 C26.17664062 266.52829102 25.41480469 267.58661133 24.62988281 268.67700195 C-5.31181386 309.0959551 -49.98342514 332.10591816 -99.06152344 339.4699707 C-104.99883525 340.25635941 -110.85979355 340.64798801 -116.84667969 340.70825195 C-117.65720795 340.71800049 -118.46773621 340.72774902 -119.30282593 340.73779297 C-137.22310894 340.90900655 -154.54457529 340.74128425 -172.06152344 336.4699707 C-172.83351074 336.28805176 -173.60549805 336.10613281 -174.40087891 335.91870117 C-202.98957981 328.97776901 -228.39458249 313.13691165 -249.06152344 292.4699707 C-249.39152344 351.8699707 -249.72152344 411.2699707 -250.06152344 472.4699707 C-279.43152344 472.4699707 -308.80152344 472.4699707 -339.06152344 472.4699707 C-339.06152344 302.8499707 -339.06152344 133.2299707 -339.06152344 -41.5300293 C-311.01152344 -41.5300293 -282.96152344 -41.5300293 -254.06152344 -41.5300293 C-253.73152344 -26.0200293 -253.40152344 -10.5100293 -253.06152344 5.4699707 C-248.44152344 0.8499707 -243.82152344 -3.7700293 -239.06152344 -8.5300293 C-170.34370999 -62.68898397 -65.50027084 -57.29902252 0 0 Z M-222.95605469 64.9621582 C-245.81492486 90.08226022 -252.21451111 123.42929056 -251.21386719 156.38549805 C-249.59664797 189.1290039 -236.18856398 217.8889583 -212.18652344 240.2199707 C-198.68614221 251.50223656 -182.12403972 258.76315767 -165.06152344 262.4699707 C-163.59972656 262.80834961 -163.59972656 262.80834961 -162.10839844 263.15356445 C-132.84559171 268.82616736 -102.29849471 262.96892177 -77.06152344 247.4699707 C-73.5472941 244.98535739 -70.29507219 242.30631883 -67.06152344 239.4699707 C-66.31644531 238.86797852 -65.57136719 238.26598633 -64.80371094 237.64575195 C-41.65537976 218.40924677 -31.46405622 188.60839908 -28.56835938 159.59619141 C-26.49297013 136.14670621 -29.75292114 111.76653878 -40.06152344 90.4699707 C-40.56296875 89.42711914 -41.06441406 88.38426758 -41.58105469 87.30981445 C-54.25622928 62.40472901 -75.78628661 44.0820333 -102.29467773 35.23657227 C-114.57546419 31.3297926 -126.43529958 30.10146654 -139.31152344 30.1574707 C-139.99605591 30.15995819 -140.68058838 30.16244568 -141.38586426 30.16500854 C-173.06692929 30.34304921 -201.00014013 41.88182567 -222.95605469 64.9621582 Z " fill="#FFFFFF" transform="translate(3212.0615234375,323.530029296875)"/>
<path d="M0 0 C0.60005859 0.32081543 1.20011719 0.64163086 1.81835938 0.97216797 C32.70024955 17.54971479 58.19142378 42.20167712 75 73 C75.34369629 73.62696777 75.68739258 74.25393555 76.04150391 74.89990234 C100.58407718 120.28811504 105.17907492 177.22820075 90.72998047 226.61181641 C82.79659622 252.56645342 70.01058459 276.61009069 52 297 C51.54657227 297.51900879 51.09314453 298.03801758 50.62597656 298.57275391 C43.95845334 306.16892015 37.03558959 312.82645048 29 319 C27.99324219 319.81082031 26.98648437 320.62164063 25.94921875 321.45703125 C-10.44333983 350.59466224 -56.32078608 362.47273813 -102.3125 362.375 C-103.27844086 362.37445618 -104.24438171 362.37391235 -105.23959351 362.37335205 C-121.13946988 362.33232096 -136.41570856 361.39823414 -152 358 C-153.49515137 357.67854004 -153.49515137 357.67854004 -155.02050781 357.35058594 C-190.95609744 349.36360759 -221.20277288 331.96120177 -248 307 C-248.73863281 306.31550781 -249.47726562 305.63101562 -250.23828125 304.92578125 C-280.94728638 275.41677277 -297.62026801 234.63007559 -303 193 C-303.13277344 192.00484375 -303.26554687 191.0096875 -303.40234375 189.984375 C-308.8212703 139.20977555 -295.21646143 88.03565847 -263.4609375 48.01953125 C-259.79548402 43.52207802 -255.99357399 39.20821234 -252 35 C-251.55430664 34.5270752 -251.10861328 34.05415039 -250.64941406 33.56689453 C-228.87799458 10.60753555 -200.23482666 -5.97990244 -170 -15 C-169.21173828 -15.23799316 -168.42347656 -15.47598633 -167.61132812 -15.72119141 C-113.56280997 -31.74255782 -49.67590738 -27.05422305 0 0 Z M-185.75 85.8125 C-209.78143718 113.67312222 -215.78674205 147.25998001 -214 183 C-211.88144022 210.03100036 -200.76089234 235.41095282 -182 255 C-180.96939453 256.14275391 -180.96939453 256.14275391 -179.91796875 257.30859375 C-163.45710764 274.92996083 -137.1453239 285.05325143 -113.29541016 286.12109375 C-81.86133276 287.13558713 -50.78982066 281.01151181 -27 259 C-26.28585937 258.35417969 -25.57171875 257.70835937 -24.8359375 257.04296875 C-9.41174148 242.42273661 -0.60461243 223.14620143 5 203 C5.19352051 202.32517578 5.38704102 201.65035156 5.58642578 200.95507812 C11.02696963 180.98043578 10.37456302 153.90632989 5 134 C4.80664062 133.27538574 4.61328125 132.55077148 4.4140625 131.80419922 C-2.85616848 105.64595305 -18.68311227 80.96018962 -42.41796875 66.9921875 C-43.60829935 66.32155128 -44.80232569 65.65743147 -46 65 C-46.58475098 64.67805664 -47.16950195 64.35611328 -47.77197266 64.02441406 C-92.22756797 40.1797165 -151.26847416 49.41865383 -185.75 85.8125 Z " fill="#FFFFFF" transform="translate(1754,302)"/>
<path d="M0 0 C3.56086433 3.13846446 7.0109453 6.38176918 10.44677734 9.65625 C11.27693359 10.42195313 12.10708984 11.18765625 12.96240234 11.9765625 C37.69714286 35.51446073 53.55816959 68.28179808 60.69677734 101.34375 C60.84791992 102.04226074 60.9990625 102.74077148 61.15478516 103.46044922 C63.97230536 117.43038855 64.85639541 131.25820951 64.82177734 145.46875 C64.82123352 146.31564392 64.8206897 147.16253784 64.82012939 148.03509521 C64.66354327 201.42094179 44.78399717 248.05937672 8.00927734 286.40625 C-7.13857374 301.08759117 -25.43326334 312.90132126 -44.55322266 321.65625 C-45.67728516 322.18734375 -46.80134766 322.7184375 -47.95947266 323.265625 C-60.82464326 329.0970341 -74.45828247 332.92060434 -88.24072266 335.90625 C-88.92674561 336.05723145 -89.61276855 336.20821289 -90.31958008 336.36376953 C-105.36063535 339.43605877 -120.37566774 340.03008928 -135.67822266 339.96875 C-137.09654388 339.96601578 -137.09654388 339.96601578 -138.54351807 339.96322632 C-152.72836574 339.91722708 -166.60815512 339.4805326 -180.55322266 336.65625 C-181.42414551 336.48464355 -182.29506836 336.31303711 -183.19238281 336.13623047 C-234.60344211 325.70486594 -278.41690671 296.29892302 -307.55322266 252.65625 C-336.43000582 208.99824073 -343.43652139 153.3378501 -333.42602539 102.5456543 C-326.75388437 71.69102759 -312.69956054 43.08867847 -291.55322266 19.65625 C-290.3436784 18.24061707 -289.13518548 16.82408449 -287.92822266 15.40625 C-228.20898711 -51.90084136 -118.48629116 -64.11679595 0 0 Z M-218.08496094 62.30126953 C-241.61066707 89.01055381 -249.36910823 122.80521539 -247.55322266 157.65625 C-246.5418926 170.47530201 -244.01123291 182.60688516 -239.55322266 194.65625 C-239.12267578 195.83445312 -238.69212891 197.01265625 -238.24853516 198.2265625 C-232.50593884 212.7290515 -223.50848248 224.70099018 -212.55322266 235.65625 C-211.81458984 236.39488281 -211.07595703 237.13351562 -210.31494141 237.89453125 C-188.42032084 258.5082965 -158.79313889 264.37435398 -129.76416016 263.90625 C-100.63619205 263.01630291 -73.50744438 251.14513346 -53.43603516 229.94140625 C-31.81988027 206.00458724 -23.16676606 172.29590048 -24.55322266 140.65625 C-26.60613087 107.50067858 -37.24930545 76.50755639 -62.60400391 53.8515625 C-83.63673236 36.69398732 -108.66676287 29.2445768 -135.55322266 29.28125 C-136.23031281 29.28179382 -136.90740295 29.28233765 -137.60501099 29.28289795 C-168.25572057 29.39557278 -196.87807424 39.52600613 -218.08496094 62.30126953 Z " fill="#FFFFFF" transform="translate(2241.55322265625,324.34375)"/>
<path d="M0 0 C29.04 0 58.08 0 88 0 C88.02505615 6.14608887 88.0501123 12.29217773 88.07592773 18.62451172 C88.15952243 38.96455182 88.24814595 59.30456773 88.33933926 79.64457512 C88.39449028 91.97283909 88.44794131 104.30110595 88.49731445 116.62939453 C88.54037954 127.38148595 88.58671156 138.13355762 88.63687855 148.88561833 C88.663301 154.57257196 88.68814731 160.25952214 88.70907402 165.94649887 C88.72887257 171.31281091 88.75308005 176.679086 88.78049088 182.04536438 C88.78974005 184.00189151 88.79745698 185.95842667 88.80341911 187.91496658 C88.79118675 211.63317689 88.79118675 211.63317689 91.6875 235.125 C91.86047607 236.04458496 92.03345215 236.96416992 92.21166992 237.91162109 C96.15956695 257.6390961 104.99238109 276.80892372 121.8815918 288.6628418 C145.13227087 303.99507087 175.02885936 306.44385976 201.86328125 300.96875 C226.02554597 295.52056173 246.5574133 282.9685609 260.125 261.875 C266.29865828 251.34418727 270.86465324 240.67950138 273.8125 228.8125 C274.10483521 227.6678125 274.10483521 227.6678125 274.40307617 226.5 C278.13470047 210.21176418 278.30014458 193.16058223 278.31884766 176.53198242 C278.32817948 174.58801878 278.33835277 172.64405903 278.34928894 170.70010376 C278.37623698 165.49697599 278.39163193 160.29387471 278.40471697 155.0906961 C278.42050421 149.62548187 278.44724337 144.16032061 278.4727478 138.69514465 C278.51926272 128.37919292 278.55613757 118.06323091 278.58942068 107.74722892 C278.6350405 93.78379647 278.69581229 79.82043012 278.75566864 65.8570528 C278.84937708 43.90473525 278.92306639 21.9523976 279 0 C308.37 0 337.74 0 368 0 C368 124.41 368 248.82 368 377 C339.95 377 311.9 377 283 377 C282.67 362.15 282.34 347.3 282 332 C279.03 335.3 276.06 338.6 273 342 C246.47807636 367.17498194 208.79253609 381.99253794 172.2421875 382.203125 C171.42504776 382.21018463 170.60790802 382.21724426 169.76600647 382.22451782 C135.03004426 382.45630361 135.03004426 382.45630361 119 379 C117.60539551 378.70198486 117.60539551 378.70198486 116.18261719 378.39794922 C91.96766329 373.02980517 68.67882293 363.64219115 50 347 C49.17242188 346.30390625 48.34484375 345.6078125 47.4921875 344.890625 C17.06184174 318.75296125 3.34499852 279.0530019 0 240 C-0.12991468 236.60118581 -0.13116944 233.20736237 -0.12025452 229.80638123 C-0.12110894 228.81863884 -0.12196337 227.83089645 -0.12284368 226.81322247 C-0.12448247 223.52446998 -0.11900345 220.23576922 -0.11352539 216.94702148 C-0.11324315 214.58119203 -0.11340198 212.21536249 -0.1139679 209.84953308 C-0.11425442 203.4411718 -0.10838108 197.0328293 -0.10139394 190.62447238 C-0.09529094 184.60150154 -0.09477005 178.57852859 -0.09374207 172.55555523 C-0.09155696 160.63102743 -0.08491157 148.7065065 -0.07543945 136.78198242 C-0.06625132 125.20288121 -0.05917734 113.62378186 -0.05493164 102.04467773 C-0.05466892 101.33016331 -0.05440619 100.61564888 -0.05413551 99.8794825 C-0.05283041 96.29474112 -0.05156672 92.70999973 -0.05032361 89.12525833 C-0.03996786 59.41683349 -0.02153865 29.70841928 0 0 Z " fill="#FFFFFF" transform="translate(3558,282)"/>
<path d="M0 0 C2.48954233 1.93167233 4.85039727 3.93800776 7.1875 6.05078125 C8.24904297 6.99050781 8.24904297 6.99050781 9.33203125 7.94921875 C22.616702 20.3956598 30.45287903 38.90932759 31.390625 56.9609375 C31.76287091 76.75635846 25.72478166 92.22217887 15.8125 109.17578125 C15.10356951 110.40048638 14.39533177 111.62559275 13.68774414 112.85107422 C12.23620315 115.36256687 10.78075582 117.87172708 9.32177734 120.37890625 C6.6905409 124.90190559 4.08100726 129.43734548 1.47021484 133.97216797 C-1.00033113 138.26146464 -3.47709732 142.54715619 -5.95361328 146.83300781 C-9.07574605 152.2374877 -12.19391204 157.64425537 -15.3125 163.05078125 C-16.56248122 165.21745875 -17.81248121 167.38412542 -19.0625 169.55078125 C-19.68125 170.62328125 -20.3 171.69578125 -20.9375 172.80078125 C-22.8125 176.05078125 -24.6875 179.30078125 -26.5625 182.55078125 C-27.18133057 183.62344238 -27.80016113 184.69610352 -28.43774414 185.80126953 C-29.68685518 187.96635196 -30.93604129 190.13139107 -32.18530273 192.29638672 C-35.32452309 197.73693831 -38.46240563 203.17825341 -41.59765625 208.62109375 C-47.61997329 219.07284324 -53.65919337 229.51377673 -59.75 239.92578125 C-64.82525123 248.60340366 -69.83508767 257.31683693 -74.8125 266.05078125 C-80.3525173 275.77193742 -85.94624809 285.45972783 -91.59594727 295.11767578 C-97.75016742 305.6416275 -103.83619996 316.20458262 -109.92138672 326.76855469 C-113.04930148 332.19738067 -116.18108448 337.62397406 -119.3125 343.05078125 C-120.56251879 345.21743708 -121.81251878 347.38410375 -123.0625 349.55078125 C-130.5625 362.55078125 -138.0625 375.55078125 -145.5625 388.55078125 C-146.18133057 389.62344238 -146.80016113 390.69610352 -147.43774414 391.80126953 C-148.68685518 393.96635196 -149.93604129 396.13139107 -151.18530273 398.29638672 C-154.95597425 404.83130002 -158.72406084 411.36769254 -162.48925781 417.90576172 C-163.74037363 420.07529113 -164.9936093 422.24359954 -166.24902344 424.41064453 C-169.36310574 429.78647388 -172.44894275 435.17478216 -175.48046875 440.59765625 C-181.63568187 451.52822152 -187.46635167 461.55816245 -196.8125 470.05078125 C-198.00552734 471.15873047 -198.00552734 471.15873047 -199.22265625 472.2890625 C-215.57069778 486.4042008 -235.14593344 490.41278198 -256.15673828 489.26953125 C-275.47814853 487.67806374 -293.54591928 476.88291712 -306.0625 462.42578125 C-319.47925472 444.56472653 -324.23832404 423.79008204 -321.53125 401.76220703 C-319.02775239 386.36783042 -310.57240074 373.06750885 -302.6953125 359.8984375 C-299.27534919 354.17319237 -295.95201173 348.39287859 -292.625 342.61328125 C-291.66871704 340.95353271 -291.66871704 340.95353271 -290.69311523 339.26025391 C-289.38453157 336.98890436 -288.07618385 334.71741886 -286.76806641 332.44580078 C-283.61917946 326.97908145 -280.46566736 321.51503238 -277.3125 316.05078125 C-276.0624765 313.88412814 -274.81247653 311.71746146 -273.5625 309.55078125 C-262.3125 290.05078125 -262.3125 290.05078125 -251.0625 270.55078125 C-250.44366943 269.47812012 -249.82483887 268.40545898 -249.18725586 267.30029297 C-247.93814482 265.13521054 -246.68895871 262.97017143 -245.43969727 260.80517578 C-242.30047691 255.36462419 -239.16259437 249.92330909 -236.02734375 244.48046875 C-230.00502671 234.02871926 -223.96580663 223.58778577 -217.875 213.17578125 C-212.79974877 204.49815884 -207.78991233 195.78472557 -202.8125 187.05078125 C-197.2724827 177.32962508 -191.67875191 167.64183467 -186.02905273 157.98388672 C-179.87483258 147.459935 -173.78880004 136.89697988 -167.70361328 126.33300781 C-164.57569852 120.90418183 -161.44391552 115.47758844 -158.3125 110.05078125 C-157.06248121 107.88412542 -155.81248122 105.71745875 -154.5625 103.55078125 C-143.3125 84.05078125 -143.3125 84.05078125 -132.0625 64.55078125 C-131.44342773 63.47715332 -130.82435547 62.40352539 -130.18652344 61.29736328 C-128.9417711 59.14093851 -127.69504 56.98565468 -126.44628906 54.83154297 C-123.55957495 49.84656645 -120.69218072 44.85400639 -117.89743042 39.81674194 C-104.81806992 16.24508874 -104.81806992 16.24508874 -94.8125 7.05078125 C-94.11511719 6.32632813 -93.41773438 5.601875 -92.69921875 4.85546875 C-68.47233812 -19.14328683 -26.93644713 -18.66845433 0 0 Z " fill="#FFFFFF" transform="translate(348.8125,56.94921875)"/>
<path d="M0 0 C0.80291473 -0.00067474 1.60582947 -0.00134949 2.43307495 -0.00204468 C49.7353485 0.0603663 101.45057999 7.52897646 142.625 32.25 C141.09550803 37.4778749 138.76527685 41.98259326 136.18359375 46.7421875 C132.38181403 53.8545544 128.71511698 61.01896413 125.16015625 68.2578125 C124.70957855 69.17173767 124.25900085 70.08566284 123.79476929 71.02728271 C121.9484387 74.7731967 120.10430919 78.52006955 118.27416992 82.27392578 C116.91181162 85.06474191 115.5371272 87.84918379 114.16015625 90.6328125 C113.74766129 91.48674591 113.33516632 92.34067932 112.91017151 93.2204895 C112.52223923 93.99995941 112.13430695 94.77942932 111.73461914 95.58251953 C111.39838028 96.26911652 111.06214142 96.9557135 110.7157135 97.66311646 C109.625 99.25 109.625 99.25 106.625 100.25 C104.6105957 99.44897461 104.6105957 99.44897461 102.30078125 98.15234375 C101.0183252 97.44887817 101.0183252 97.44887817 99.70996094 96.73120117 C98.79504883 96.22177979 97.88013672 95.7123584 96.9375 95.1875 C56.66314922 73.55729006 1.33284114 65.58481368 -43.02416992 77.94384766 C-54.92930187 81.55716714 -66.29983012 86.84622744 -72.94140625 97.84375 C-77.46709926 106.61147435 -78.74084298 114.59131185 -76.375 124.3125 C-73.15648241 133.66083063 -66.2334749 139.06045662 -57.66381836 143.43969727 C-33.38660656 155.01975611 -4.41350163 158.08850416 22 161.75 C57.38402023 166.6811659 98.09411327 174.82743919 125.625 199.25 C126.37765137 199.91636475 126.37765137 199.91636475 127.14550781 200.59619141 C146.52888952 218.04602392 153.44509573 240.06465452 154.90625 265.4765625 C155.53364141 291.56558865 147.41715784 316.92357136 129.625 336.25 C129.13821777 336.78979492 128.65143555 337.32958984 128.14990234 337.88574219 C103.68315732 364.77110873 69.64929326 377.13897601 34.625 383.25 C33.24513916 383.49991699 33.24513916 383.49991699 31.83740234 383.75488281 C-0.4968903 389.3375328 -37.07460481 388.73053386 -69.375 383.25 C-70.43219238 383.07839355 -71.48938477 382.90678711 -72.57861328 382.72998047 C-107.94657806 376.87456508 -147.53604496 366.57492915 -176.375 344.25 C-169.95392827 330.52755657 -163.31750785 316.91958233 -156.55200195 303.36376953 C-154.90984617 300.06952508 -153.2762654 296.77110704 -151.64257812 293.47265625 C-150.59687577 291.37473993 -149.55067147 289.2770737 -148.50390625 287.1796875 C-148.01749161 286.19451141 -147.53107697 285.20933533 -147.02992249 284.19430542 C-146.57862473 283.294711 -146.12732697 282.39511658 -145.66235352 281.46826172 C-145.26758316 280.67507538 -144.87281281 279.88188904 -144.46607971 279.06466675 C-143.375 277.25 -143.375 277.25 -141.375 276.25 C-139.35176104 277.29366173 -137.38178375 278.44073382 -135.4375 279.625 C-111.8169698 293.52867194 -86.09129339 302.4365503 -59.375 308.25 C-58.61316406 308.41725586 -57.85132812 308.58451172 -57.06640625 308.75683594 C-23.53753721 315.90863599 21.28214447 318.96078985 51.625 300.25 C59.43927228 294.79475331 64.76704433 287.74415348 66.625 278.25 C67.39531205 269.67287161 66.15119808 262.18914167 60.9375 255.1875 C57.49112552 251.55287817 53.60132707 249.31845606 49.1875 247.0625 C48.28608276 246.59928345 48.28608276 246.59928345 47.36645508 246.12670898 C35.5716215 240.49181512 22.68348151 237.56693006 9.875 235.375 C8.47695495 235.12749385 7.07900895 234.87942761 5.68115234 234.63085938 C-4.53536043 232.83287566 -14.78196436 231.2335233 -25.03198242 229.64013672 C-119.78649863 214.90403094 -119.78649863 214.90403094 -147.73193359 178.48144531 C-150.55006816 174.54831436 -153.00795043 170.46801286 -155.375 166.25 C-155.87644531 165.36054688 -156.37789062 164.47109375 -156.89453125 163.5546875 C-162.53714014 152.40584697 -164.96981042 138.6699416 -165.375 126.25 C-165.41496094 125.10402344 -165.45492187 123.95804687 -165.49609375 122.77734375 C-166.03517695 92.11302267 -156.23910473 67.35427879 -135.375 45.25 C-134.76140625 44.57195312 -134.1478125 43.89390625 -133.515625 43.1953125 C-100.71585488 8.29299301 -45.44683662 0.03475114 0 0 Z " fill="#FFFFFF" transform="translate(4173.375,277.75)"/>
<path d="M0 0 C29.37 0 58.74 0 89 0 C89 172.59 89 345.18 89 523 C59.63 523 30.26 523 0 523 C0 350.41 0 177.82 0 0 Z " fill="#FFFFFF" transform="translate(3357,136)"/>
<path d="M0 0 C29.37 0 58.74 0 89 0 C89 172.59 89 345.18 89 523 C59.63 523 30.26 523 0 523 C0 350.41 0 177.82 0 0 Z " fill="#FFFFFF" transform="translate(1277,136)"/>
</svg>
