<svg width="340" height="346" viewBox="0 0 340 346" fill="none" xmlns="http://www.w3.org/2000/svg">
<path d="M248.185 40.1992C267.371 57.372 279.927 81.3324 300.085 115.771C320.337 150.21 348.263 195.124 337.672 221.9C327.082 248.677 277.787 257.308 231.242 274.867C184.697 292.426 140.876 318.812 100.564 313.668C60.2525 308.525 23.4496 271.86 14.1935 231.309C4.84358 190.66 22.9551 146.133 36.0015 105.582C48.9541 65.0346 56.8417 28.4463 79.5279 11.8809C102.214 -4.68447 139.708 -1.12503 171.454 5.76022C203.196 12.7304 228.999 23.0307 248.185 40.1992Z" fill="#313131"/>
<path d="M72.9406 329.078H59.5957V344.824H40.0303V329.078H0V323.132L46.2509 260.158H59.5957V312.3H72.9406V329.078ZM40.0303 312.3V292.681L26.0417 312.3H40.0303Z" fill="#464646"/>
<path d="M84.0811 302.621C84.0811 278.227 91.2054 258.994 116.058 258.994C140.786 258.994 147.667 278.227 147.667 302.621C147.667 326.887 140.803 345.988 116.058 345.988C91.2054 345.988 84.0811 326.887 84.0811 302.621ZM128.128 302.621C128.128 287.907 125.275 276.549 116.079 276.549C106.75 276.549 103.514 287.907 103.514 302.621C103.514 317.202 106.75 328.305 116.079 328.305C125.275 328.322 128.128 317.202 128.128 302.621Z" fill="#464646"/>
<path d="M228.142 329.079H214.797V344.824H195.236V329.079H155.193V323.132L201.452 260.158H214.797V312.301H228.142V329.079ZM195.236 312.301V292.682L181.243 312.301H195.236Z" fill="#464646"/>
<path d="M228.841 329.469H236.093V323.353H228.841V329.469Z" fill="#DE8E68"/>
<path d="M236.776 328.514V334.63H219.521V332.404L228.496 328.514H236.776Z" fill="#FFA9A9"/>
<path d="M116.113 254.437H123.365V248.32H116.113V254.437Z" fill="#DE8E68"/>
<path d="M124.048 253.481V259.597H106.797V257.376L115.772 253.481H124.048Z" fill="#FFA9A9"/>
<path d="M228.59 171.677C228.956 175.152 236.66 324.967 236.66 324.967H228.59L189.344 183.906L228.59 171.677Z" fill="#2B2B2B"/>
<path d="M232.734 155.171C232.734 175.517 225.226 193.824 210.026 193.824C189.16 193.824 161.537 180.572 153.935 173.092C152.038 178.681 125.126 249.089 125.126 249.089H113.981C113.981 249.089 121.123 167.111 134.51 146.086C138.915 140.241 174.856 141.702 193.015 146.086C211.173 150.469 232.734 155.171 232.734 155.171Z" fill="#2B2B2B"/>
<path d="M178.839 36.6271C178.965 35.9986 179.319 35.4384 179.833 35.0531C180.347 34.6677 180.986 34.4842 181.627 34.5373C183.26 34.652 185.929 38.9505 185.929 42.4292C185.929 45.908 184.944 47.2162 185.242 49.7435C185.541 52.2708 192 86.5399 192 88.6297C193.629 88.7444 199.457 87.9331 199.457 87.9331L195.377 104.303H183.499L175.824 38.3686L178.839 36.6271Z" fill="#D37C59"/>
<path d="M190.23 42.4631L187.728 52.5383C187.728 52.5383 163.037 49.6797 160.343 49.0171C157.648 48.3544 161.707 31.6956 164.474 32.3752C167.241 33.0548 190.23 42.4631 190.23 42.4631Z" fill="black"/>
<path d="M212.853 72.2681C244.437 72.2681 236.648 153.562 232.96 156.603C229.272 159.644 190.004 149.382 186.743 144.854C183.481 140.326 189.689 72.2681 212.853 72.2681Z" fill="#2B2B2B"/>
<path d="M201.58 92.9069C199.845 93.4931 189.668 97.4475 189.668 97.4475C189.497 95.4087 181.674 54.9722 181.192 52.4959C182.179 50.0242 182.667 47.3828 182.629 44.7229C182.629 38.084 179.921 32.6938 176.583 32.6938C173.245 32.6938 170.541 38.084 170.541 44.7229C170.494 47.5016 171.031 50.2594 172.119 52.8187C171.744 57.8732 168.376 105.866 175.248 112.709C182.496 119.93 200.118 113.418 210.828 108.568C213.121 107.778 209.996 90.6387 201.58 92.9069Z" fill="#DE8E68"/>
<path d="M194.023 46.6251L187.636 44.9355L186.451 49.3816L192.838 51.0711L194.023 46.6251Z" fill="black"/>
<path d="M230.907 87.4095C235.721 96.7201 216.658 113.494 211.384 112.245C206.11 110.996 197.605 92.2474 199.195 88.8834C200.785 85.5193 226.226 78.3495 230.907 87.4095Z" fill="#2B2B2B"/>
<path d="M214.789 80.1474C214.789 81.7233 205.14 82.1225 205.14 80.1474V62.002H214.789V80.1474Z" fill="#D37C59"/>
<path d="M206.479 72.5355C213.435 72.5355 219.073 63.4512 219.073 52.2451C219.073 41.0389 213.435 31.9546 206.479 31.9546C199.523 31.9546 193.884 41.0389 193.884 52.2451C193.884 63.4512 199.523 72.5355 206.479 72.5355Z" fill="#DC8E6C"/>
<path d="M197.043 38.802C196.948 40.2593 197.243 41.7158 197.898 43.0221C198.554 44.3283 199.546 45.4373 200.774 46.2352C204.53 48.7837 207.208 47.6581 209.962 50.058C211.416 51.5064 214.976 54.3055 215.01 58.6295C215.01 61.8279 216.063 63.442 216.988 63.442C217.914 63.442 220.352 62.8048 221.921 62.8048C237.33 62.8048 255.424 78.6524 290.138 78.6524C308.271 78.6524 336.726 74.0948 336.726 47.5647C336.726 33.2378 331.55 15.9248 304.19 15.9248C286.817 15.9248 274.644 24.4199 260.37 24.4199C242.037 24.4199 234.968 17.8065 222.301 17.8065C213.279 17.8065 192.976 23.0139 192.976 36.657C192.976 41.839 194.605 43.3426 195.108 43.6102C195.27 43.0411 196.263 40.1018 197.043 38.802Z" fill="#2B2211"/>
<path d="M213.714 60.2519C215.49 60.2519 216.929 58.8181 216.929 57.0493C216.929 55.2805 215.49 53.8467 213.714 53.8467C211.939 53.8467 210.5 55.2805 210.5 57.0493C210.5 58.8181 211.939 60.2519 213.714 60.2519Z" fill="#DC8E6C"/>
</svg>
